<svg width="24.000000" height="24.000000" viewBox="0 0 24 24" fill="none" xmlns="http://www.w3.org/2000/svg" xmlns:xlink="http://www.w3.org/1999/xlink">
	<desc>
			Created with Pixso.
	</desc>
	<defs>
		<clipPath id="clip15_495">
			<rect id="icon / user" rx="0.000000" width="23.000000" height="23.000000" transform="translate(0.500000 0.500000)" fill="white" fill-opacity="0"/>
		</clipPath>
	</defs>
	<rect id="icon / user" rx="0.000000" width="23.000000" height="23.000000" transform="translate(0.500000 0.500000)" fill="#FFFFFF" fill-opacity="0"/>
	<g clip-path="url(#clip15_495)">
		<path id="Vector" d="M9.17 9.82C9.92 10.57 10.93 11 12 11C13.06 11 14.07 10.57 14.82 9.82C15.57 9.07 16 8.06 16 7C16 5.93 15.57 4.92 14.82 4.17C14.07 3.42 13.06 3 12 3C10.93 3 9.92 3.42 9.17 4.17C8.42 4.92 8 5.93 8 7C8 8.06 8.42 9.07 9.17 9.82ZM4.5 21L4.5 19C4.5 17.93 4.92 16.92 5.67 16.17C6.42 15.42 7.43 15 8.5 15L15.5 15C16.56 15 17.57 15.42 18.32 16.17C19.07 16.92 19.5 17.93 19.5 19L19.5 21" stroke="#5A7A94" stroke-opacity="1.000000" stroke-width="2.000000" stroke-linejoin="round" stroke-linecap="round"/>
	</g>
</svg>
