<svg width="24.000000" height="24.000000" viewBox="0 0 24 24" fill="none" xmlns="http://www.w3.org/2000/svg" xmlns:xlink="http://www.w3.org/1999/xlink">
	<desc>
			Created with Pixso.
	</desc>
	<defs>
		<clipPath id="clip15_503">
			<rect id="icon / link" rx="0.000000" width="23.000000" height="23.000000" transform="translate(0.500000 0.500000)" fill="white" fill-opacity="0"/>
		</clipPath>
	</defs>
	<rect id="icon / link" rx="0.000000" width="23.000000" height="23.000000" transform="translate(0.500000 0.500000)" fill="#FFFFFF" fill-opacity="0"/>
	<g clip-path="url(#clip15_503)">
		<path id="Vector" d="M9 15L15 9M11 6L11.46 5.46C12.4 4.52 13.67 3.99 14.99 3.99C16.32 3.99 17.59 4.52 18.53 5.46C19.47 6.4 19.99 7.67 19.99 9C19.99 10.32 19.47 11.59 18.53 12.53L18 13M13 18L12.6 18.53C11.65 19.47 10.37 19.99 9.03 19.99C7.7 19.99 6.42 19.47 5.47 18.53C5 18.07 4.63 17.52 4.38 16.91C4.13 16.3 4 15.65 4 14.99C4 14.34 4.13 13.68 4.38 13.08C4.63 12.47 5 11.92 5.47 11.46L6 11" stroke="#5A7A94" stroke-opacity="1.000000" stroke-width="2.000000" stroke-linejoin="round" stroke-linecap="round"/>
	</g>
</svg>
