<svg width="245.000000" height="60.000000" viewBox="0 0 245 60" fill="none" xmlns="http://www.w3.org/2000/svg" xmlns:xlink="http://www.w3.org/1999/xlink">
	<desc>
			Created with Pixso.
	</desc>
	<defs>
		<clipPath id="clip166_2255">
			<rect id="лого" rx="0.000000" width="243.999985" height="59.000000" transform="translate(0.500000 0.500000)" fill="white" fill-opacity="0"/>
		</clipPath>
	</defs>
	<rect id="лого" rx="0.000000" width="243.999985" height="59.000000" transform="translate(0.500000 0.500000)" fill="#FFFFFF" fill-opacity="0"/>
	<g clip-path="url(#clip166_2255)">
		<mask id="mask166_2257" mask-type="alpha" maskUnits="userSpaceOnUse" x="0.000000" y="0.000000" width="59.000000" height="60.000000">
			<path id="Vector" d="M0 0L59 0L59 60L0 60L0 0Z" fill="#000000" fill-opacity="1.000000" fill-rule="evenodd"/>
		</mask>
		<g mask="url(#mask166_2257)">
			<mask id="mask166_2261" mask-type="alpha" maskUnits="userSpaceOnUse" x="-3.281250" y="-2.036255" width="65.562500" height="64.072540">
				<path id="Vector" d="M62.28 -2.04L-3.29 -2.04L-3.29 62.03L62.28 62.03L62.28 -2.04Z" fill="#FFFFFF" fill-opacity="1.000000" fill-rule="nonzero"/>
			</mask>
			<g mask="url(#mask166_2261)">
				<path id="Vector" d="M49.08 40.23C49.08 40.31 49.1 40.33 49.12 40.27C49.13 40.25 49.14 40.23 49.14 40.21C49.14 40.18 49.13 40.16 49.12 40.14C49.1 40.11 49.08 40.16 49.08 40.23L49.08 40.23Z" fill="#FFFFFF" fill-opacity="1.000000" fill-rule="nonzero"/>
				<path id="Vector" d="M11.75 53.76C11.77 53.75 11.65 53.61 11.49 53.46C11.33 53.3 11.22 53.24 11.27 53.32C11.37 53.5 11.71 53.8 11.75 53.76L11.75 53.76Z" fill="#FFFFFF" fill-opacity="1.000000" fill-rule="nonzero"/>
				<path id="Vector" d="M26.42 57.05C26.42 57.09 26.53 57.12 26.64 57.12C26.76 57.12 26.84 57.09 26.81 57.05C26.78 57.01 26.69 56.98 26.6 56.98C26.5 56.98 26.42 57.01 26.42 57.05Z" fill="#FFFFFF" fill-opacity="1.000000" fill-rule="nonzero"/>
				<path id="Vector" d="M10.21 52.49C9.99 52.32 9.85 52.28 9.85 52.35C10.01 52.49 10.19 52.59 10.39 52.66C10.43 52.66 10.35 52.58 10.21 52.49L10.21 52.49Z" fill="#FFFFFF" fill-opacity="1.000000" fill-rule="nonzero"/>
				<path id="Vector" d="M43.33 47.61C43.48 47.49 43.5 47.44 43.42 47.44C43.31 47.47 43.21 47.53 43.14 47.61C42.92 47.83 43.07 47.84 43.33 47.61Z" fill="#FFFFFF" fill-opacity="1.000000" fill-rule="nonzero"/>
				<path id="Vector" d="M12.24 55.31C12.06 55.23 11.94 55.14 11.96 55.1C11.98 55.06 11.98 55.03 11.93 55.03C11.79 54.95 11.65 54.85 11.54 54.73C11.15 54.36 10.71 53.99 10.48 53.81C10.38 53.66 10.26 53.54 10.12 53.42C9.74 53.12 9.34 52.84 8.91 52.59C8.83 52.53 8.73 52.48 8.64 52.43C8.36 52.25 8.11 52.03 7.91 51.77C7.68 51.5 7.42 51.25 7.13 51.03C6.84 50.82 6.48 50.7 6.48 50.8C6.71 51.01 6.94 51.21 7.19 51.39C7.51 51.65 7.81 51.93 8.09 52.24C8.18 52.39 8.32 52.5 8.49 52.57C8.58 52.59 8.67 52.62 8.75 52.65C9.22 52.96 9.1 52.78 9.54 53.2C9.99 53.62 10.78 54.32 10.68 54.19C10.72 54.24 10.76 54.29 10.78 54.35C10.53 54.24 10.29 54.12 10.05 53.97C9.65 53.73 9.27 53.51 9.21 53.47C8.88 53.19 8.66 52.73 8.36 52.66C8.33 52.65 8.29 52.64 8.26 52.63C8.25 52.61 8.23 52.6 8.21 52.59C8.16 52.56 8.1 52.53 8.04 52.52C7.92 52.44 7.81 52.34 7.73 52.22C7.68 52.14 7.62 52.08 7.55 52.02L7.6 52.02L7.43 51.88C7.33 51.81 7.1 51.6 6.92 51.43C6.84 51.35 6.76 51.28 6.67 51.22L6.29 50.7C6.29 50.7 6.09 50.58 5.92 50.47C5.98 50.44 6.03 50.41 6.07 50.36L6.21 50.19L6.39 50.4C6.63 50.68 6.7 50.58 6.48 50.26C6.38 50.12 6.31 49.96 6.33 49.91C6.41 49.7 6.01 49.34 5.63 49.28C5.49 49.26 5.06 48.88 5.08 48.79C5.08 48.74 5.08 48.69 5.08 48.65C5.08 48.54 5.01 48.54 4.77 48.67C4.7 48.71 4.64 48.76 4.6 48.82C4.55 48.88 4.52 48.95 4.51 49.02C4.45 48.95 4.39 48.87 4.33 48.8C4.33 48.8 4.35 48.8 4.35 48.79C4.29 48.68 4.22 48.59 4.13 48.52L4.09 48.49C3.87 48.21 3.68 48.01 3.68 48.01C3.64 48.09 3.58 48.22 4.03 48.73C4.19 48.91 4.35 49.08 4.48 49.21C4.48 49.3 4.51 49.39 4.55 49.47C4.6 49.55 4.66 49.61 4.74 49.66C4.86 49.7 4.98 49.72 5.1 49.71C5.23 49.71 5.35 49.67 5.45 49.61C5.6 49.49 5.89 49.67 5.92 49.89C5.94 50.05 5.91 50.1 5.71 50.18C5.4 50.3 5.35 50.38 5.46 50.53C5.56 50.65 5.83 50.62 5.76 50.5C5.73 50.46 5.77 50.45 5.83 50.47C6 50.63 6.16 50.8 6.3 50.98C6.41 51.1 6.52 51.22 6.64 51.33C6.7 51.48 6.79 51.61 6.9 51.72C7.1 52.03 6.93 52.15 7.36 52.37C7.79 52.6 7.96 52.53 8.27 52.82C8.58 53.1 8.84 53.45 9.07 53.62C9.3 53.79 9.89 54.03 10.06 54.14C10.37 54.35 10.7 54.53 11.04 54.69C11.06 54.69 11.06 54.65 11.04 54.6C11.02 54.56 11.02 54.54 11.11 54.57C11.16 54.59 11.21 54.61 11.27 54.62C11.29 54.62 11.28 54.64 11.27 54.69C11.25 54.73 11.27 54.74 11.33 54.71C11.39 54.69 11.44 54.71 11.44 54.74C11.51 54.89 11.61 55.02 11.73 55.14C11.84 55.26 11.93 55.39 12 55.53C12 55.66 12.59 55.88 12.69 55.79C12.79 55.71 12.65 55.51 12.24 55.32L12.24 55.31ZM5.11 49.39C4.91 49.39 4.86 49.37 4.83 49.22C4.8 49.14 4.8 49.06 4.83 48.98C4.89 48.87 4.94 48.89 5.16 49.1C5.42 49.34 5.41 49.39 5.12 49.39L5.11 49.39Z" fill="#FFFFFF" fill-opacity="1.000000" fill-rule="nonzero"/>
				<path id="Vector" d="M40.38 53.06C40.48 53.05 40.57 53.02 40.65 52.97C40.8 52.89 40.95 52.84 41.11 52.79C41.3 52.75 41.31 52.75 41.14 52.74C40.98 52.73 40.33 53.01 40.38 53.06Z" fill="#FFFFFF" fill-opacity="1.000000" fill-rule="nonzero"/>
				<path id="Vector" d="M49.32 19.01C49.44 19.01 49.54 18.61 49.48 18.28C49.4 17.99 49.29 17.7 49.16 17.43C49.07 17.2 48.95 16.99 48.8 16.8C48.67 16.76 48.69 16.85 48.96 17.46C49.13 17.79 49.22 18.15 49.21 18.52C49.21 18.9 49.23 19.01 49.32 19.01L49.32 19.01Z" fill="#FFFFFF" fill-opacity="1.000000" fill-rule="nonzero"/>
				<path id="Vector" d="M49.08 13.45C48.85 13.09 48.78 13.03 48.78 13.15C48.78 13.3 49.17 13.92 49.26 13.92C49.36 13.92 49.39 13.92 49.08 13.45Z" fill="#FFFFFF" fill-opacity="1.000000" fill-rule="nonzero"/>
				<path id="Vector" d="M48.68 15.87C48.61 15.97 48.8 16.22 49.18 16.54C49.67 16.93 49.87 17.06 50.03 17.05C50.16 17.05 50.15 17.03 49.96 16.9C49.85 16.81 49.53 16.53 49.24 16.26C48.96 16 48.71 15.82 48.68 15.86L48.68 15.87Z" fill="#FFFFFF" fill-opacity="1.000000" fill-rule="nonzero"/>
				<path id="Vector" d="M11.25 54.96C11.11 54.83 11.07 54.82 11.07 54.91C11.07 55 11.34 55.21 11.4 55.16C11.42 55.14 11.35 55.05 11.25 54.96Z" fill="#FFFFFF" fill-opacity="1.000000" fill-rule="nonzero"/>
				<path id="Vector" d="M43.4 4.9C43.24 4.84 43.08 4.77 42.94 4.67C42.74 4.53 42.43 4.43 42.43 4.5C42.43 4.58 43.4 5.01 43.55 5.01C43.62 5.01 43.55 4.96 43.4 4.9L43.4 4.9Z" fill="#FFFFFF" fill-opacity="1.000000" fill-rule="nonzero"/>
				<path id="Vector" d="M41.52 8C41.88 8.4 42.1 8.37 41.77 7.96C41.54 7.67 41.38 7.54 40.85 7.27C40.04 6.85 39.98 6.98 40.79 7.44C41.05 7.6 41.3 7.79 41.52 8Z" fill="#FFFFFF" fill-opacity="1.000000" fill-rule="nonzero"/>
				<path id="Vector" d="M58.92 29.95C58.86 29.8 58.83 29.1 58.83 28.1C58.81 26.25 58.66 25.03 58.24 23.71C58.11 23.29 57.9 22.57 57.79 22.11C57.68 21.71 57.55 21.31 57.39 20.93C57.24 20.6 57.11 20.27 57 19.93C56.86 19.51 56.7 19.1 56.5 18.7C56.34 18.36 56.19 18.01 56.07 17.64C55.78 16.85 55.45 16.08 55.06 15.33C54.99 15.16 54.51 14.44 54.03 13.73C53.54 13.02 53.08 12.31 53 12.17C52.83 11.9 52.64 11.64 52.43 11.41C52.19 11.13 51.98 10.86 51.95 10.82C51.79 10.68 51.61 10.54 51.43 10.43C51.11 10.2 50.83 9.93 50.61 9.61C50.39 9.31 50.13 9.03 49.84 8.8C49.59 8.61 49.18 8.26 48.93 8.01C48.67 7.76 48.32 7.43 48.14 7.29C47.9 7.09 47.68 6.87 47.49 6.62C47.3 6.37 47.07 6.16 46.81 5.97C46.62 5.85 46.21 5.55 45.9 5.32C44.97 4.62 44.61 4.39 44.33 4.31C44.15 4.25 43.97 4.18 43.8 4.1C43.66 4.01 43.05 3.7 42.44 3.4C41.83 3.1 41.02 2.68 40.62 2.47C39.78 2 38.84 1.7 37.88 1.6C37.62 1.56 37.36 1.49 37.13 1.38C36.68 1.17 35.65 0.81 35.65 0.87C35.77 0.95 35.9 1.02 36.03 1.07C36.19 1.13 36.34 1.22 36.47 1.33C36.5 1.38 36.48 1.4 36.42 1.38C36.35 1.36 36.12 1.3 35.89 1.25C35.34 1.13 34.81 0.97 34.3 0.75C34.21 0.71 34.12 0.69 34.1 0.71C33.96 0.71 33.84 0.67 33.72 0.61C33.54 0.53 33.24 0.43 33.07 0.37C32.84 0.31 32.6 0.28 32.36 0.29L31.96 0.3L32.37 0.33C32.55 0.32 32.72 0.37 32.87 0.46C32.95 0.57 32.95 0.58 32.82 0.52C32.54 0.4 31.99 0.4 31.91 0.52C31.78 0.61 31.63 0.67 31.47 0.69L31.11 0.76L31.45 0.76C31.58 0.75 31.71 0.77 31.83 0.83C31.93 0.99 32.44 1.17 33.11 1.28C34.13 1.44 35.18 1.86 35.27 2.13C35.31 2.23 34.86 2.42 34.55 2.43L34.33 2.43L34.55 2.49C34.69 2.53 34.84 2.53 34.99 2.49C35.15 2.46 35.32 2.48 35.47 2.54C35.78 2.65 35.88 2.61 35.75 2.42C35.62 2.22 35.75 2.19 36 2.29C36.31 2.35 36.63 2.4 36.96 2.42C37.42 2.45 37.87 2.54 38.31 2.67C38.89 2.86 38.92 2.89 39.06 3.18C39.3 3.65 39.55 3.83 39.91 3.79C40.14 3.76 40.38 3.81 40.58 3.94C40.75 4.01 40.9 4.11 41.03 4.24C41.12 4.41 41.06 4.4 40.67 4.19C40.58 4.12 40.47 4.07 40.35 4.04C40.24 4.02 40.12 4.02 40 4.05C39.59 4.11 39.56 4.23 39.96 4.23C40.37 4.23 41.11 4.65 41.44 5.09C41.59 5.28 41.77 5.45 41.96 5.59C42.18 5.73 42.24 5.8 42.24 5.97C42.24 6.18 42.45 6.36 42.51 6.19C42.54 6.07 42.7 6.09 43.01 6.24C43.15 6.31 43.53 6.45 43.84 6.56C44.64 6.83 44.93 7.12 44.59 7.29C44.44 7.35 44.28 7.35 44.13 7.29C43.76 7.2 43.45 7.26 43.45 7.41C43.45 7.55 43.56 7.57 44.18 7.75C44.65 7.88 45.37 8.37 45.57 8.7C45.66 8.85 45.72 9.01 45.76 9.18C45.83 9.51 45.99 9.73 46.16 9.73C46.32 9.73 46.33 9.58 46.12 9.16C45.91 8.76 45.63 8.39 45.29 8.09C44.89 7.69 44.85 7.57 45.11 7.57C45.25 7.56 45.39 7.59 45.52 7.66C45.64 7.73 45.73 7.84 45.79 7.97C45.92 8.33 46.69 9.04 47.25 9.32C47.92 9.66 48.07 10.03 47.51 9.96C47.13 9.91 47.13 10.02 47.51 10.49C47.71 10.74 47.78 10.89 47.75 10.98C47.71 11.11 47.95 11.5 48.19 11.71C48.38 11.9 48.51 12.13 48.57 12.39C48.57 12.48 48.6 12.57 48.64 12.66C48.7 12.75 48.71 12.74 48.71 12.63C48.71 12.48 48.75 12.48 49 12.67C49.21 12.81 49.22 12.81 49.46 12.7C49.71 12.59 49.71 12.59 49.96 12.8C50.08 12.88 50.17 13 50.2 13.13C50.24 13.27 50.22 13.41 50.14 13.53C50.08 13.69 50.09 13.76 50.24 13.97C50.33 14.11 50.52 14.41 50.64 14.64C51.16 15.56 52.04 16.42 52.48 16.42C52.79 16.42 52.66 16.22 52.29 16.14C51.97 16.07 51.86 15.98 51.44 15.53C51.12 15.2 50.86 14.82 50.65 14.42C50.33 13.78 50.32 13.66 50.55 13.12C50.66 12.86 50.68 12.86 50.92 12.91C51.34 13.04 51.71 13.29 51.99 13.62C52.22 13.87 52.22 13.88 52.18 14.39C52.11 15 52.2 15.17 52.63 15.39C52.78 15.46 52.91 15.56 53.03 15.68C53.12 15.82 53.12 15.84 52.98 16.03L52.83 16.24L52.98 16.54C53.1 16.77 53.13 16.99 53.16 17.71C53.19 18.51 53.22 18.63 53.38 18.9C53.47 19.05 53.58 19.2 53.69 19.34C54.18 19.85 54.64 20.43 54.7 20.63C54.74 20.77 54.81 21.11 54.86 21.39C54.91 21.66 54.97 21.93 55.04 22.19C55.09 22.3 55.12 22.41 55.14 22.53C55.14 22.64 54.76 22.26 54.46 21.85C54.15 21.43 54.02 21.37 53.96 21.63C53.93 21.76 53.93 21.89 53.97 22.01C54.01 22.13 54.09 22.24 54.19 22.32C54.29 22.4 54.52 22.62 54.71 22.8C54.88 22.96 55.06 23.11 55.26 23.24L55.45 23.37L55.4 24.05C55.35 24.7 55.36 24.76 55.57 25.27C55.69 25.57 55.91 26.05 56.04 26.33L56.3 26.83L56.22 27.42C56.1 28.39 56.29 29.18 56.71 29.47L56.94 29.63L56.91 30.48C56.89 31.33 56.9 31.33 57.11 31.64C57.37 32.03 57.38 32.32 57.11 32.85C56.88 33.36 56.74 33.89 56.67 34.44C56.66 34.61 56.59 34.78 56.5 34.92L56.37 35.08L56.21 34.94C55.8 34.58 55.68 33.76 55.89 32.63C56.03 31.87 56.12 31.65 56.47 31.27C56.74 30.98 56.76 30.89 56.61 30.7C56.52 30.58 56.5 30.58 56.39 30.65C56.23 30.78 56.13 30.69 56.18 30.46C56.19 30.26 56.13 30.06 56.02 29.89C55.82 29.52 55.82 29.49 55.77 27.89C55.77 27.33 55.74 26.77 55.68 26.22C55.66 26.19 55.59 26.22 55.54 26.26C55.49 26.31 55.46 26.6 55.48 27.27C55.5 28.06 55.48 28.26 55.36 28.63C55.16 29.18 55.16 29.29 55.42 29.72C55.87 30.49 55.97 31.62 55.65 32.33C55.55 32.59 55.49 32.85 55.46 33.13C55.41 33.65 55.29 33.99 55.1 34.14C54.92 34.29 54.72 34.72 54.6 35.34C54.53 35.66 54.47 35.98 54.46 36.07C54.37 36.28 54.25 36.47 54.11 36.66C53.25 37.88 53.03 38.82 53.39 39.6C53.61 40.07 53.58 40.15 53.07 40.51C52.42 40.98 51.83 41.91 51.6 42.82C51.58 42.98 51.52 43.14 51.44 43.28C51.36 43.42 51.24 43.54 51.11 43.64L50.75 43.97L51.09 43.74C51.57 43.42 51.63 43.33 51.79 42.78C52.1 41.68 52.86 40.63 53.24 40.77C53.3 40.79 53.36 40.96 53.39 41.18C53.42 41.39 53.47 41.59 53.54 41.79C53.68 42.21 53.67 42.67 53.53 43.1C53.41 43.35 53.24 43.56 53.03 43.73C52.81 43.9 52.56 44.02 52.29 44.09C52.22 44.09 52.16 44.11 52.1 44.15C52.04 44.19 51.99 44.24 51.96 44.3C51.77 44.67 50.91 45.63 50.74 45.67C50.53 45.73 50.48 45.67 50.37 45.36C50.24 44.99 50.27 44.8 50.51 44.38C50.64 44.15 50.69 44.03 50.61 44.09C50.3 44.35 50.08 45.1 50.21 45.45C50.31 45.69 50.26 45.76 49.76 46.03C49.49 46.2 49.24 46.4 49.01 46.63C48.88 46.78 48.73 46.92 48.58 47.05C48.55 47.07 48.54 46.87 48.56 46.61C48.58 46.27 48.56 46.11 48.5 46.08C48.36 46 48.28 46.18 48.28 46.59C48.28 47.43 47.47 48.35 46.42 48.72C46 48.87 45.87 49.01 46.17 48.99C46.48 48.97 47.15 48.59 47.69 48.09C47.89 47.9 48.09 47.73 48.31 47.58C48.34 47.58 48.34 47.7 48.31 47.85C48.29 47.93 48.29 48.01 48.31 48.09C48.33 48.17 48.37 48.25 48.42 48.31C48.57 48.49 48.57 48.5 48.45 48.72C48.29 49.02 48.12 49.11 47.57 49.19C46.75 49.3 46.09 49.7 45.22 50.59C44.59 51.24 44.42 51.6 44.51 52.09C44.56 52.41 44.45 52.55 43.88 52.91C43.37 53.23 42.94 53.7 42.88 54.01C42.84 54.22 42.8 54.27 42.63 54.27C41.85 54.27 39.91 55.13 39.91 55.48C39.91 55.93 38.11 56.89 37.9 56.56C37.87 56.5 37.89 56.42 37.97 56.34C38.13 56.16 38.87 55.77 39.32 55.63C39.73 55.5 39.76 55.41 39.4 55.35C39.27 55.33 39.18 55.28 39.21 55.23C39.28 55.03 39.82 54.75 40.33 54.65C40.61 54.59 40.89 54.51 41.15 54.4C41.71 54.06 42.19 53.62 42.57 53.1C42.72 52.89 42.9 52.68 43.1 52.5C43.37 52.27 43.29 52.21 42.89 52.38C42.5 52.55 42.27 52.82 42.27 53.06C42.27 53.54 40.99 54.36 39.96 54.54C39.77 54.56 39.58 54.62 39.42 54.71C39.25 54.8 39.1 54.92 38.98 55.07C38.75 55.35 38.45 55.58 38.11 55.73C37.79 55.88 37.73 55.94 37.66 56.18C37.6 56.38 37.53 56.48 37.39 56.52C37.11 56.63 37.21 56.73 37.61 56.77L37.96 56.81L37.78 56.92C37.6 57.03 37.04 57.34 36.43 57.66C36.21 57.76 35.96 57.82 35.71 57.83L35.31 57.83L35.69 57.88C36.36 57.98 36.41 58.05 35.94 58.3L35.67 58.44L35.91 58.41C36.12 58.37 36.21 58.45 36.06 58.55C35.9 58.64 35.49 58.71 35.49 58.65C35.51 58.6 35.54 58.55 35.58 58.52C35.7 58.4 35.58 58.42 35.26 58.54C35.1 58.6 34.94 58.63 34.78 58.64C34.35 58.64 34.13 58.39 34.41 58.23C34.68 58.07 34.31 58.17 33.86 58.38C33.6 58.5 33.23 58.65 33.03 58.72C32.56 58.89 32.81 58.9 33.6 58.74C34.03 58.66 34.22 58.64 34.37 58.71C34.59 58.79 34.64 58.92 34.45 58.92C34.32 58.94 34.2 58.99 34.09 59.07C33.78 59.2 33.46 59.31 33.12 59.38C32.88 59.44 32.65 59.51 32.41 59.59C32.19 59.61 31.97 59.61 31.75 59.59C31.38 59.56 31.63 59.51 31.38 59.57C31.36 59.56 31.34 59.56 31.31 59.57C30.84 59.57 31.46 59.13 32.14 58.98L32.6 58.88L31.99 58.88C31.4 58.88 30.92 58.78 30.92 58.67C30.97 58.58 31.04 58.5 31.12 58.44C31.48 58.1 32.42 57.96 33.05 58.14C33.14 58.17 33.21 58.16 33.21 58.12C33.21 58.08 33.11 58.04 32.99 58.01C32.64 57.96 32.28 57.96 31.93 58.01C31.51 58.09 31.1 58.24 30.74 58.46C30.59 58.6 30.55 58.6 30.12 58.53C29.57 58.44 29.3 58.48 29.16 58.71C28.97 58.99 28.67 59.1 28.18 59.06C27.85 59.02 27.8 59.03 27.97 59.08C28.24 59.16 28.4 59.32 28.27 59.4C28.11 59.49 26.86 59.51 26.54 59.42C26.21 59.33 26.12 59.17 26.42 59.1C26.72 59.03 26.76 59.02 26.49 59.01C26.29 59.01 26.1 59.05 25.92 59.13C25.66 59.22 25.55 59.23 24.84 59.14C24.35 59.08 23.85 59.06 23.36 59.06C22.83 59.08 22.3 59.03 21.79 58.92C21.4 58.84 20.94 58.76 20.67 58.72C20.33 58.65 19.99 58.59 19.65 58.55C19.17 58.47 18.71 58.36 18.25 58.23C18.28 58.23 18.29 58.23 18.27 58.19C18.17 58.03 17.12 57.47 16.77 57.38C16.66 57.35 16.55 57.31 16.45 57.26C16.69 57.26 16.94 57.3 17.17 57.37C17.63 57.52 17.93 57.51 18.28 57.72C18.62 57.94 18.89 57.93 19.55 57.93L19.99 57.93L20.03 57.95C20.27 58.01 20.51 58.04 20.76 58.04C21.08 58.03 21.4 58.08 21.7 58.18C21.93 58.25 22.17 58.31 22.4 58.35C22.55 58.37 22.74 58.41 22.81 58.43C22.88 58.45 22.93 58.43 22.93 58.28C22.93 58.27 22.93 58.26 22.93 58.24C23.26 58.21 23.6 58.22 23.92 58.28C24.37 58.37 24.82 58.42 25.27 58.44C25.32 58.43 25.37 58.43 25.42 58.41L25.49 58.43C25.94 58.52 26 58.51 25.86 58.35C25.79 58.27 25.79 58.25 25.86 58.25C26 58.25 26.72 57.77 26.72 57.69C26.72 57.57 26.47 57.61 26.22 57.79C26.08 57.87 25.76 58.04 25.51 58.15L25.42 58.19L25.41 58.18C25.01 58.27 24.59 58.27 24.19 58.18C23.6 58.08 23.33 57.93 22.97 58C22.75 58.05 22.61 58.12 22.62 58.18C22.52 58.2 22.42 58.22 22.31 58.23C22.21 58.25 22.11 58.24 22.01 58.21C21.91 58.17 21.82 58.11 21.76 58.03C21.72 57.99 21.67 57.96 21.63 57.93C21.48 57.7 21.19 57.15 20.94 57.32C20.83 57.39 21.09 57.53 21.27 57.74C21.28 57.76 21.3 57.78 21.32 57.8C21.17 57.79 21.02 57.78 20.87 57.78L20.79 57.78C20.18 57.72 19.94 57.83 19.23 57.78C18.51 57.73 18.87 57.74 18.23 57.53C17.59 57.31 17.33 57.18 16.78 57.13C16.72 57.12 16.66 57.12 16.59 57.13C16.48 57.08 16.32 57 16.16 56.92C15.75 56.7 15.6 56.65 15.83 56.81C15.9 56.87 15.94 56.94 15.91 56.96C15.84 57.03 15.57 56.8 15.57 56.67C15.57 56.62 15.25 56.43 14.87 56.23C14.5 56.04 14.05 55.79 13.89 55.7L13.88 55.7C13.75 55.56 13.62 55.43 13.47 55.32C13.1 55.06 12.71 54.83 12.31 54.63C12.12 54.51 11.91 54.44 11.69 54.42C11.62 54.41 11.57 54.42 11.57 54.48C11.57 54.53 11.67 54.6 11.78 54.62C12.25 55.1 12.04 54.56 12.73 55.05C13.41 55.53 13.46 55.49 13.77 55.79C13.85 55.88 13.95 55.95 14.06 56C14.09 56.05 14.1 56.08 14.08 56.09C14.01 56.13 13.48 56.01 13.11 55.87C13.01 55.82 12.89 55.81 12.78 55.83C12.67 55.88 13.04 56.04 13.42 56.12C13.69 56.17 14.07 56.37 14.07 56.47C14.07 56.52 14.02 56.54 13.97 56.52C13.91 56.5 13.86 56.5 13.86 56.52C13.86 56.61 14.72 56.96 15.07 57.01C15.48 57.1 15.87 57.24 16.24 57.44C16.65 57.64 17.08 57.82 17.52 57.98L17.61 58.01C17.85 58.16 18.1 58.3 18.36 58.42C18.67 58.55 18.63 58.59 19.41 58.71C20.07 58.82 20.28 58.86 20.49 58.87C20.57 58.92 20.65 58.98 20.71 59.03C20.93 59.21 21.24 59.32 21.32 59.24C21.35 59.22 21.3 59.2 21.22 59.2C21.09 59.2 20.84 59.05 20.84 58.96C20.84 58.88 21.06 58.94 21.57 59.2C21.86 59.35 22.18 59.46 22.5 59.51C22.77 59.54 22.83 59.53 22.72 59.49C22.61 59.45 22.68 59.42 23.02 59.42C23.18 59.4 23.35 59.42 23.51 59.48C23.53 59.51 23.48 59.55 23.41 59.55C23.37 59.55 23.33 59.55 23.3 59.57C23.27 59.58 23.24 59.6 23.21 59.62C23.18 59.68 23.33 59.69 23.76 59.66C24.44 59.58 25.12 59.6 25.79 59.71C26.26 59.76 27.09 59.85 27.65 59.88C28.26 59.93 29.08 59.95 29.55 59.95C29.73 59.98 29.92 59.99 30.1 59.98C30.47 59.96 30.75 59.97 31.37 59.95C31.86 59.93 32.35 59.85 32.83 59.72C32.83 59.72 32.84 59.72 32.84 59.71C32.85 59.71 32.85 59.7 32.85 59.7C32.99 59.69 33.13 59.66 33.26 59.61C33.46 59.53 33.66 59.46 33.86 59.4C34.15 59.32 34.44 59.22 34.72 59.1C35.02 58.97 35.35 58.9 35.68 58.92C36.22 58.92 36.21 58.92 38.86 58.1C39.06 58.04 39.51 57.85 39.89 57.68C40.14 57.56 40.4 57.46 40.67 57.38C40.84 57.33 41.01 57.26 41.16 57.17C41.32 57.07 41.5 57 41.68 56.96C41.82 56.96 42.93 56.42 43.46 56.1C43.57 56.02 43.7 55.97 43.84 55.95C43.9 55.97 44.06 55.89 44.18 55.76C44.31 55.64 44.4 55.57 44.38 55.62C44.35 55.66 44.38 55.67 44.51 55.62C44.64 55.56 44.68 55.5 44.64 55.34C44.59 55.11 44.83 54.95 44.97 55.11C45.04 55.2 45.08 55.2 45.23 55.09C45.32 55.03 45.4 54.94 45.4 54.9C45.4 54.86 45.54 54.77 45.71 54.69C45.89 54.6 46.06 54.49 46.22 54.36C46.6 54.01 47.01 53.7 47.45 53.43C47.57 53.37 47.68 53.28 47.75 53.16C47.79 53.07 47.87 52.99 47.92 52.99C48.02 52.99 48.26 52.75 48.21 52.69C48.2 52.66 48.21 52.66 48.23 52.67C48.25 52.69 48.49 52.55 49.31 51.94C49.65 51.7 49.68 51.65 49.61 51.53C49.56 51.46 49.54 51.39 49.55 51.38C49.56 51.36 49.69 51.26 49.82 51.15L50.06 50.94L50.04 51.11C50 51.37 50.15 51.32 50.43 50.97C50.69 50.66 50.76 50.5 50.62 50.59C50.58 50.61 50.55 50.59 50.55 50.55C50.65 50.39 50.78 50.24 50.93 50.11C51.48 49.6 51.97 49.01 52.38 48.38C52.57 47.99 52.89 47.67 53.29 47.47C53.39 47.42 53.48 47.35 53.48 47.31C53.48 47.12 54.22 45.84 54.52 45.51C54.91 45.09 55.33 44.28 55.33 43.95C55.33 43.63 55.43 43.44 55.76 43.07C56.22 42.55 56.8 41.38 56.88 40.78C56.92 40.49 57.19 39.69 58.07 37.24C58.22 36.91 58.28 36.53 58.23 36.16C58.19 35.8 58.23 35.43 58.33 35.09C58.41 34.8 58.46 34.5 58.48 34.2C58.48 34.01 58.52 33.82 58.59 33.64C58.71 33.16 58.77 32.68 58.77 32.19C58.79 31.72 58.84 31.26 58.91 30.79C59 30.51 58.99 30.21 58.9 29.93L58.92 29.95ZM36.25 2.14C35.94 2.04 35.64 1.89 35.38 1.7C35.14 1.5 34.84 1.38 34.53 1.36C33.55 1.28 32.4 1.09 32.31 1C32.26 0.96 32.23 0.9 32.22 0.84C32.21 0.77 32.23 0.71 32.26 0.66C32.35 0.63 32.45 0.63 32.54 0.66C32.65 0.68 33.1 0.73 33.52 0.77C34.3 0.83 34.48 0.89 34.86 1.23C34.99 1.35 35.15 1.4 35.51 1.42C35.77 1.44 36.02 1.48 36.27 1.56C36.61 1.67 37.43 2.2 37.43 2.31C37.43 2.41 36.78 2.31 36.25 2.15L36.25 2.14ZM38.2 2.15C38.06 2.15 37.79 1.94 37.83 1.86C37.87 1.79 38.01 1.79 38.16 1.92C38.31 2.05 38.33 2.15 38.2 2.15ZM44.44 4.48C44.52 4.5 44.6 4.55 44.67 4.61C44.76 4.75 44.67 4.73 44.45 4.58C44.23 4.43 44.25 4.43 44.43 4.48L44.44 4.48ZM39.2 2.43C38.94 2.36 38.57 2.07 38.57 1.94C38.57 1.9 38.62 1.87 38.7 1.87C39.03 1.87 40.15 2.28 40.25 2.43C40.3 2.52 39.53 2.51 39.2 2.43L39.2 2.43ZM39.87 2.65C40.17 2.65 40.35 2.7 40.35 2.79C40.35 2.88 39.81 2.86 39.7 2.75C39.6 2.64 39.65 2.65 39.87 2.65L39.87 2.65ZM44.32 5.19C44.2 5.13 44.07 5.1 43.94 5.08C43.82 5.08 43.82 5.08 43.94 5.15C44.09 5.24 44.59 6.18 44.53 6.27C44.4 6.48 43.02 5.85 42.36 5.25C42.04 4.96 41.97 4.68 42.21 4.61C42.4 4.56 42.4 4.56 42.13 4.32C41.86 4.07 41.77 4.06 41.64 4.21C41.52 4.36 41.41 4.34 40.94 4.03C40.72 3.88 40.47 3.77 40.21 3.71C40.05 3.69 39.9 3.61 39.78 3.5C39.6 3.32 39.64 3.29 40.07 3.24C40.89 3.16 41.27 3.19 41.65 3.39C41.88 3.5 42.11 3.58 42.36 3.63C42.95 3.71 44.72 4.81 44.72 5.11C44.72 5.27 44.6 5.3 44.33 5.18L44.32 5.19ZM45.72 5.54C45.59 5.4 45.51 5.29 45.55 5.29C45.93 5.51 46.29 5.76 46.64 6.03C46.65 6.03 46.65 6.08 46.62 6.1C46.56 6.17 45.99 5.82 45.72 5.54ZM47.81 9.2C47.69 9.31 47.05 9.07 46.72 8.8C46.4 8.53 46.14 8.11 46.14 7.9C46.14 7.73 46.37 7.78 46.79 8.05C47.66 8.6 48.01 9 47.81 9.2L47.81 9.2ZM48.4 8.84C48.45 8.74 48.83 8.96 49.05 9.21C49.27 9.46 49.27 9.54 49.12 9.54C48.97 9.54 48.35 8.93 48.4 8.84ZM48.25 9.48C48.18 9.23 48.31 9.3 48.78 9.75C49.35 10.31 49.38 10.44 48.83 10.14C48.56 10 48.35 9.76 48.25 9.48ZM49.25 12.39C49.14 12.37 49.04 12.33 48.97 12.25C48.8 12.06 48.97 12.06 49.22 12.25C49.39 12.38 49.39 12.39 49.25 12.39ZM55.04 15.64C55.09 15.7 55.13 15.77 55.14 15.85C55.14 15.88 55.1 15.85 55.04 15.79C54.99 15.72 54.95 15.65 54.93 15.57C54.93 15.54 54.98 15.57 55.04 15.64L55.04 15.64ZM52.7 12.96C52.72 12.92 52.75 12.88 52.78 12.86C52.82 12.83 52.86 12.82 52.9 12.82C53.18 12.87 54.34 14.64 54.25 14.87C54.18 15.03 54.11 14.98 53.79 14.56C53.51 14.2 53.08 13.66 52.75 13.26C52.64 13.14 52.63 13.08 52.7 12.96ZM49.63 11.05C49.63 10.92 49.68 10.95 49.92 11.21C50.23 11.54 50.3 11.76 50.07 11.63C49.96 11.57 49.86 11.49 49.79 11.39C49.71 11.28 49.66 11.17 49.63 11.05L49.63 11.05ZM50.76 12.51C50.68 12.59 49.99 12.18 49.99 12.05C49.99 12.03 50.1 12.01 50.24 12C50.45 12 50.51 12.03 50.64 12.24C50.73 12.37 50.78 12.49 50.76 12.51ZM53.33 15.81C53.18 15.64 53.01 15.5 52.81 15.39C52.76 15.39 52.63 15.24 52.53 15.04C52.38 14.76 52.32 14.45 52.35 14.13C52.35 13.48 52.31 13.4 51.8 12.86C51.28 12.33 50.63 11.37 50.63 11.14C50.64 11.13 50.64 11.11 50.66 11.1C50.67 11.08 50.69 11.07 50.71 11.07C50.72 11.07 50.72 11.07 50.73 11.08C50.74 11.08 50.75 11.08 50.76 11.09C50.76 11.1 50.77 11.1 50.77 11.11C50.78 11.12 50.78 11.13 50.78 11.14C50.78 11.17 50.86 11.23 50.98 11.27C51.28 11.46 51.56 11.68 51.8 11.93C52.4 12.51 52.43 12.55 52.43 12.85C52.43 13.15 52.46 13.2 52.84 13.59C53.65 14.44 53.9 14.86 54.09 15.64C54.2 16.14 54.18 16.22 53.93 16.22C53.79 16.22 53.63 16.12 53.33 15.8L53.33 15.81ZM55.22 20.06C55.22 20.09 55.21 20.12 55.18 20.15C55.16 20.17 55.13 20.18 55.1 20.19C54.93 20.19 54.36 19.76 54.15 19.49C53.85 19.05 53.63 18.56 53.49 18.04C53.41 17.8 53.42 17.53 53.53 17.29C53.66 17 53.66 16.68 53.53 16.39C53.48 16.26 53.48 16.26 53.59 16.35C53.65 16.39 53.69 16.45 53.71 16.51C53.79 16.67 53.88 16.81 53.99 16.94C54.82 18 55.27 19.13 55.22 20.06L55.22 20.06ZM28.09 59.74C28.03 59.75 27.97 59.75 27.91 59.74C27.87 59.72 27.9 59.7 28 59.7C28.1 59.7 28.14 59.72 28.09 59.74ZM30.41 58.89C30.71 58.81 31.22 58.87 31.22 58.98C31.22 59.06 30.69 59.2 30.5 59.18C30.32 59.15 30.22 58.94 30.41 58.89ZM30.19 59.78L29.6 59.78C29.52 59.76 29.44 59.76 29.36 59.76C29.04 59.76 28.84 59.64 28.99 59.55C29.28 59.37 30.63 59.4 30.79 59.59C30.84 59.63 30.9 59.65 30.96 59.66C30.72 59.77 30.46 59.81 30.19 59.79L30.19 59.78ZM38.87 57.02C39 56.99 39.13 56.97 39.27 56.98C39.48 56.98 39.56 57 39.56 57.07C39.56 57.15 39.47 57.18 39.17 57.18C38.81 57.18 38.66 57.1 38.87 57.02ZM39.86 57.55C39.74 57.69 39.1 57.97 38.56 58.11C38.3 58.18 37.83 58.32 37.52 58.4C36.4 58.73 36.3 58.7 36.93 58.22C37.35 57.88 37.85 57.63 38.38 57.48C38.92 57.31 39.43 57.27 39.73 57.39C39.89 57.44 39.91 57.48 39.85 57.55L39.86 57.55ZM53.86 38.66C53.96 38.03 54.2 37.42 54.56 36.89C54.86 36.4 54.88 36.37 54.91 35.66C54.91 35.35 54.96 35.05 55.06 34.76C55.21 34.53 55.36 34.57 55.69 34.89C55.99 35.18 56.05 35.39 55.92 35.63C55.81 35.83 55.33 36.92 55.23 37.22C55.16 37.42 55.11 37.64 55.09 37.85C55.05 38.16 54.99 38.24 54.56 38.68C54.2 39.04 54.04 39.15 53.95 39.11C53.86 39.06 53.83 39 53.86 38.66ZM52.56 44.44C52.8 44.06 52.91 44.18 52.8 44.71C52.75 44.95 52.59 45.06 52.48 44.92C52.37 44.77 52.4 44.71 52.56 44.45L52.56 44.44ZM51.31 46.99C51.37 46.91 51.45 46.85 51.53 46.81C51.62 46.78 51.72 46.76 51.82 46.77C52.08 46.78 52.08 46.77 52.27 46.32C52.51 45.73 52.55 45.67 52.85 45.5C53.15 45.33 53.31 45.3 53.23 45.44C53.2 45.49 52.99 45.77 52.76 46.07C52.53 46.37 52.25 46.78 52.11 46.99C51.87 47.38 51.68 47.51 51.3 47.54C50.97 47.56 50.97 47.29 51.3 46.99L51.31 46.99ZM49.52 46.59C49.7 46.4 49.91 46.24 50.14 46.11C50.54 45.95 50.6 45.95 50.74 46.16C50.84 46.32 50.84 46.37 50.74 46.7C50.59 47.17 50.09 47.83 49.78 47.97C49.45 48.11 49.12 48.21 48.77 48.28C48.45 48.37 49 47.11 49.53 46.59L49.52 46.59ZM42.03 56.17C42.36 55.96 42.78 55.87 42.78 56.02C42.66 56.14 42.51 56.25 42.35 56.33C41.63 56.73 41.37 56.61 42.03 56.17L42.03 56.17ZM43.89 55.74C43.82 55.86 42.56 56.46 42.51 56.4C42.5 56.39 42.5 56.38 42.5 56.38C42.5 56.37 42.5 56.36 42.5 56.35C42.5 56.35 42.51 56.34 42.51 56.33C42.52 56.33 42.53 56.32 42.54 56.32C42.58 56.31 42.9 56.14 43.25 55.96C43.9 55.63 43.99 55.6 43.9 55.75L43.89 55.74ZM44.57 55.09C44.29 55.38 43.45 55.79 43.35 55.69C43.25 55.6 43.36 55.27 43.57 55.09C43.67 55 43.88 54.82 44.04 54.71C44.39 54.45 44.5 54.45 44.68 54.68C44.8 54.86 44.8 54.86 44.57 55.1L44.57 55.09ZM45.03 54.64C44.95 54.64 44.79 54.44 44.79 54.33C44.86 54.26 44.94 54.22 45.02 54.19C45.35 54.05 45.5 54.06 45.5 54.21C45.5 54.37 45.19 54.64 45.03 54.64L45.03 54.64ZM48.15 52.24C48.08 52.21 48.01 52.16 47.97 52.1C47.9 52.03 47.81 51.99 47.78 52.01C47.69 52.06 47.7 52.38 47.78 52.38C48.07 52.38 47.52 52.86 46.87 53.18C46.53 53.34 46.42 53.32 46.42 53.08C46.42 52.75 47.16 52.06 48.01 51.58C48.39 51.37 48.57 51.36 48.57 51.56C48.57 51.71 48.24 52.24 48.13 52.24L48.15 52.24ZM48.82 50.76C48.7 50.87 48.56 50.96 48.41 51.04C48.28 51.09 48.16 51.17 48.06 51.27C47.89 51.45 47.71 51.62 47.51 51.76C46.77 52.33 45.92 53.19 45.92 53.37C45.92 53.48 45.88 53.59 45.8 53.68C45.73 53.77 45.63 53.83 45.51 53.85C44.78 54.08 44.14 54.45 43.27 55.13C42.73 55.55 42.42 55.68 42.42 55.47C42.42 55.26 43.2 54.58 43.64 54.36C44.85 53.77 45.53 53.24 46.05 52.5C46.25 52.21 46.88 51.74 47.57 51.38C47.78 51.26 47.79 51.25 47.69 51.14C47.58 51.03 47.55 51.04 47.34 51.24C47.11 51.43 46.88 51.6 46.64 51.77C46.22 52.02 45.87 52.37 45.61 52.78C45.12 53.56 43.14 54.64 43.18 54.1C43.18 54.04 43.19 53.89 43.2 53.8C43.2 53.59 43.66 53.11 44.14 52.83C44.35 52.7 44.55 52.56 44.73 52.39C44.83 52.32 44.9 52.23 44.95 52.13C45 52.02 45.01 51.9 44.99 51.79C44.99 51.55 45.06 51.31 45.19 51.12C45.74 50.27 46.86 49.41 47.34 49.47C47.53 49.49 47.53 49.49 47.5 49.99C47.48 50.46 47.5 50.5 47.62 50.5C47.73 50.5 47.87 50.32 48.12 49.95C48.46 49.45 48.89 49 49.39 48.63C49.59 48.49 49.85 48.43 49.85 48.52C49.77 48.64 49.68 48.76 49.57 48.86C49.2 49.22 48.97 49.71 48.94 50.22C48.94 50.41 48.9 50.59 48.83 50.76L48.82 50.76ZM53.89 45.8C53.64 46.52 52.39 48.11 51.99 48.23C51.89 48.29 51.81 48.39 51.78 48.51C51.68 48.8 50.3 50.23 49.86 50.5C49.5 50.73 49.38 50.72 49.31 50.43C49.25 50.14 49.4 49.83 49.8 49.28C50.47 48.39 51.12 47.9 51.46 48.05C51.72 48.16 51.8 48.09 52.07 47.55C52.38 46.88 52.81 46.27 53.34 45.74C53.85 45.27 54.07 45.3 53.89 45.8L53.89 45.8ZM54.99 42.16C54.99 42.55 54.76 43.09 54.28 43.83C54.09 44.15 53.87 44.46 53.63 44.75C53.5 44.86 53.49 44.87 53.45 44.75C53.32 44.43 53.66 43.43 54.18 42.67C54.54 42.14 54.56 42.01 54.31 41.95C54.06 41.89 53.99 41.73 53.99 41.39C53.99 40.72 54.4 39.74 54.98 38.99C55.42 38.41 55.46 38.33 55.53 37.88C55.6 37.29 55.77 36.75 55.96 36.5C56.06 36.37 56.18 36.29 56.22 36.29C56.34 36.33 56.36 36.98 56.24 37.4C56.19 37.61 56.06 38 55.95 38.29C55.82 38.71 55.73 39.13 55.66 39.56C55.56 40.1 55.43 40.63 55.27 41.16C55.15 41.48 55.05 41.81 54.98 42.15L54.99 42.16ZM55.44 42.5C55.18 42.6 55.44 41.53 55.77 41.07C55.85 40.96 55.97 40.87 56.02 40.87C56.08 40.87 56.12 40.87 56.12 40.88C56.11 41.22 55.59 42.45 55.44 42.5ZM56.66 41.21C56.49 41.69 56.28 42.11 56.2 42.15C56.16 42.18 56.12 42.19 56.12 42.15C56.12 42.12 56.41 41.41 56.57 41.06C56.7 40.78 56.77 40.9 56.66 41.2L56.66 41.21ZM58.44 25.23C58.57 25.63 58.72 26.89 58.66 27.06C58.59 27.23 58.44 26.72 58.33 26C58.29 25.65 58.24 25.26 58.22 25.14C58.16 24.8 58.31 24.87 58.44 25.24L58.44 25.23ZM58 24.79C58.11 25.12 58.12 25.26 58.02 25.26C57.92 25.26 57.83 25.12 57.83 24.87C57.83 24.7 57.96 24.64 58 24.79ZM57.39 26.39L57.51 25.99L57.57 26.59C57.6 26.92 57.65 27.4 57.68 27.67C57.77 28.41 57.67 28.51 57.4 27.95C57.22 27.44 57.22 26.89 57.39 26.39ZM57.07 28.88C56.74 29.28 56.42 28.55 56.51 27.63C56.6 26.82 56.58 26.66 56.29 26.04C55.93 25.31 55.79 24.5 55.88 23.7C56.01 22.91 55.99 22.76 55.79 22.16C55.59 21.57 55.5 21.08 55.56 20.92C55.59 20.85 55.63 20.8 55.66 20.8C55.8 20.8 56.22 21.57 56.33 22.02C56.43 22.39 56.56 22.76 56.71 23.11C56.89 23.52 57 23.95 57.04 24.4C57.15 25.08 57.15 25.78 57.04 26.46C56.97 26.78 56.97 27.11 57.04 27.43C57.21 28.49 57.21 28.7 57.06 28.88L57.07 28.88ZM56.76 22.51C56.68 22.2 56.66 21.69 56.73 21.62C56.88 21.48 57.13 22.04 57.26 22.78C57.41 23.68 57.01 23.47 56.76 22.51ZM57.91 30.23C57.85 31.44 57.66 31.84 57.38 31.32C57.29 31.15 57.26 30.92 57.26 30.4C57.26 29.57 57.31 29.26 57.51 29.02C57.59 28.92 57.68 28.83 57.73 28.83C57.88 28.83 57.96 29.45 57.92 30.23L57.91 30.23ZM57.99 35.95C57.97 36.01 57.95 35.99 57.95 35.91C57.95 35.84 57.96 35.79 57.98 35.82C58 35.84 58 35.87 58 35.89C58 35.91 58 35.93 57.98 35.95L57.99 35.95ZM58.13 35.5C58.11 35.57 58.09 35.52 58.09 35.38C58.09 35.25 58.11 35.2 58.13 35.26C58.14 35.34 58.14 35.42 58.13 35.5ZM58.2 34.98C58.18 35.03 58.16 35.01 58.16 34.94C58.16 34.86 58.17 34.82 58.19 34.85C58.2 34.87 58.21 34.89 58.21 34.91C58.21 34.93 58.2 34.96 58.19 34.98L58.2 34.98ZM58.23 33.45C58.11 33.56 58.11 32.4 58.23 32.02C58.25 31.92 58.28 31.84 58.34 31.76C58.42 31.76 58.32 33.36 58.24 33.45L58.23 33.45ZM58.28 28.33C58.26 28.35 58.23 28.38 58.19 28.39C58.16 28.4 58.12 28.4 58.09 28.4C57.96 28.32 57.79 27.65 57.74 27.05C57.7 26.51 57.71 26.48 57.9 26.3C58 26.2 58.11 26.13 58.15 26.16C58.41 26.31 58.52 28.1 58.28 28.33ZM58.71 31.96C58.68 32.74 58.63 32.95 58.5 32.95C58.43 32.95 58.45 32.4 58.56 31.54C58.58 31.36 58.63 31.21 58.67 31.21C58.72 31.21 58.73 31.48 58.71 31.96L58.71 31.96Z" fill="#FFFFFF" fill-opacity="1.000000" fill-rule="nonzero"/>
				<path id="Vector" d="M10.7 53.43C10.85 53.43 10.79 53.32 10.59 53.22C10.48 53.17 10.37 53.11 10.34 53.1C10.31 53.09 10.28 53.1 10.28 53.12C10.28 53.2 10.6 53.42 10.7 53.43L10.7 53.43Z" fill="#FFFFFF" fill-opacity="1.000000" fill-rule="nonzero"/>
				<path id="Vector" d="M35.48 0.8C35.55 0.78 35.48 0.77 35.36 0.77C35.23 0.77 35.16 0.78 35.23 0.8C35.32 0.82 35.4 0.82 35.48 0.8Z" fill="#FFFFFF" fill-opacity="1.000000" fill-rule="nonzero"/>
				<path id="Vector" d="M51.59 49.61C51.46 49.78 51.42 49.87 51.49 49.87C51.56 49.87 51.6 49.81 51.64 49.72C51.74 49.56 51.7 49.47 51.59 49.61Z" fill="#FFFFFF" fill-opacity="1.000000" fill-rule="nonzero"/>
				<path id="Vector" d="M26.76 2.89C26.79 2.87 26.75 2.85 26.67 2.85C26.59 2.86 26.57 2.87 26.63 2.89C26.65 2.91 26.67 2.91 26.69 2.91C26.72 2.91 26.74 2.91 26.76 2.89L26.76 2.89Z" fill="#FFFFFF" fill-opacity="1.000000" fill-rule="nonzero"/>
				<path id="Vector" d="M53.32 47.58C53.29 47.63 53.29 47.67 53.31 47.69C53.33 47.71 53.36 47.67 53.38 47.61C53.43 47.49 53.38 47.47 53.32 47.58Z" fill="#FFFFFF" fill-opacity="1.000000" fill-rule="nonzero"/>
				<path id="Vector" d="M38.1 54.44C37.59 54.5 37.12 54.72 36.73 55.05C36.28 55.46 36.52 55.51 36.98 55.1C37.36 54.78 37.85 54.58 38.35 54.54C38.68 54.54 38.87 54.48 38.81 54.4C38.76 54.31 38.74 54.32 38.1 54.44Z" fill="#FFFFFF" fill-opacity="1.000000" fill-rule="nonzero"/>
				<path id="Vector" d="M34.93 0.75C35.01 0.75 35.07 0.74 35.07 0.73C35.07 0.71 35.01 0.69 34.93 0.66C34.84 0.64 34.78 0.66 34.78 0.69C34.78 0.72 34.85 0.75 34.93 0.75Z" fill="#FFFFFF" fill-opacity="1.000000" fill-rule="nonzero"/>
				<path id="Vector" d="M27.57 57.89C27.98 58.05 28.41 58.15 28.85 58.17C29.78 58.17 31.2 57.69 31.4 57.32C31.53 57.08 31.83 56.94 32.34 56.88C32.56 56.85 32.71 56.81 32.71 56.77C32.71 56.69 32.48 56.7 32 56.81C31.78 56.86 31.43 56.94 31.23 56.98C30.85 57.07 30.8 57.11 30.93 57.24C30.98 57.29 30.95 57.36 30.83 57.46C30.36 57.88 28.9 58.09 27.95 57.84C27.44 57.71 27.27 57.74 27.57 57.89L27.57 57.89Z" fill="#FFFFFF" fill-opacity="1.000000" fill-rule="nonzero"/>
				<path id="Vector" d="M34.91 58.01C34.97 58.02 35.03 58.02 35.09 58.01C35.13 57.98 35.09 57.97 34.99 57.97C34.9 57.97 34.86 57.98 34.91 58.01Z" fill="#FFFFFF" fill-opacity="1.000000" fill-rule="nonzero"/>
				<path id="Vector" d="M34.63 58.07C34.65 58.08 34.67 58.09 34.69 58.09C34.72 58.09 34.74 58.08 34.76 58.07C34.79 58.05 34.75 58.03 34.67 58.04C34.59 58.04 34.57 58.06 34.63 58.08L34.63 58.07Z" fill="#FFFFFF" fill-opacity="1.000000" fill-rule="nonzero"/>
				<path id="Vector" d="M36.14 53.13C36.14 53.2 36.22 53.18 36.44 53.05C36.81 52.84 37 52.68 37 52.59C37 52.5 37 52.5 36.76 52.75C36.64 52.86 36.5 52.94 36.34 52.99C36.23 53.01 36.14 53.08 36.14 53.13L36.14 53.13Z" fill="#FFFFFF" fill-opacity="1.000000" fill-rule="nonzero"/>
				<path id="Vector" d="M29.76 2.47C29.79 2.45 29.75 2.43 29.67 2.43C29.59 2.44 29.57 2.45 29.63 2.48C29.65 2.49 29.67 2.49 29.69 2.49C29.72 2.49 29.74 2.49 29.76 2.48L29.76 2.47Z" fill="#FFFFFF" fill-opacity="1.000000" fill-rule="nonzero"/>
				<path id="Vector" d="M27.28 3.05C27.18 3.02 27.07 3.01 26.96 3C26.85 3 26.86 3.01 27 3.05C27.1 3.09 27.21 3.1 27.32 3.11C27.43 3.11 27.43 3.1 27.28 3.05Z" fill="#FFFFFF" fill-opacity="1.000000" fill-rule="nonzero"/>
				<path id="Vector" d="M33.55 2.4C33.58 2.38 33.54 2.36 33.46 2.37C33.37 2.37 33.36 2.39 33.41 2.41C33.43 2.42 33.46 2.43 33.48 2.43C33.5 2.43 33.53 2.42 33.55 2.41L33.55 2.4Z" fill="#FFFFFF" fill-opacity="1.000000" fill-rule="nonzero"/>
				<path id="Vector" d="M34.16 2.48C34.25 2.46 34.18 2.45 34 2.45C33.82 2.45 33.75 2.46 33.84 2.48C33.95 2.49 34.05 2.49 34.16 2.48Z" fill="#FFFFFF" fill-opacity="1.000000" fill-rule="nonzero"/>
				<path id="Vector" d="M37.95 3.83C37.7 3.62 37.2 3.07 36.86 2.83C36.79 2.73 36.64 2.66 36.56 2.71C36.54 2.72 36.52 2.73 36.5 2.75C36.21 3.02 36.5 3.3 37.54 3.83C38.64 4.39 39.59 4.36 39.49 4.25C39.49 4.22 39.47 4.2 39.46 4.18C39.44 4.17 39.42 4.15 39.39 4.14C39.25 4.11 39.1 4.08 38.96 4.06L38.61 4.02L38.87 4.12C38.57 4.09 38.29 4.01 38.02 3.87C38.03 3.87 38.04 3.87 38.05 3.86C38.08 3.84 38.04 3.82 37.96 3.82L37.95 3.83Z" fill="#FFFFFF" fill-opacity="1.000000" fill-rule="nonzero"/>
				<path id="Vector" d="M39.96 5.58C39.67 5.33 39.39 5.06 39.13 4.78C39.13 4.76 39.12 4.75 39.12 4.73C39.07 4.52 38.95 4.46 38.88 4.64C38.79 4.76 39.2 5.33 39.67 5.7C40.16 6.03 40.72 6.25 41.32 6.31C41.58 6.29 42.36 6.1 41.78 6.04C41.78 5.97 41.68 5.97 41.62 6.04C41.4 6.04 41.19 6.04 40.97 6.01C40.95 6 40.93 6 40.92 6.01C40.83 5.99 40.73 5.97 40.64 5.95C40.6 5.92 40.55 5.89 40.5 5.86C40.39 5.8 40.27 5.75 40.15 5.72L40.04 5.64C40.07 5.64 40.05 5.62 39.96 5.59L39.96 5.58Z" fill="#FFFFFF" fill-opacity="1.000000" fill-rule="nonzero"/>
				<path id="Vector" d="M38.34 3.93C38.36 3.91 38.32 3.89 38.24 3.9C38.16 3.91 38.14 3.92 38.2 3.94C38.22 3.95 38.24 3.96 38.27 3.96C38.29 3.96 38.31 3.95 38.34 3.94L38.34 3.93Z" fill="#FFFFFF" fill-opacity="1.000000" fill-rule="nonzero"/>
				<path id="Vector" d="M39.46 54.01C39.43 54.17 39.44 54.21 39.51 54.18C39.58 54.15 39.64 53.99 39.69 53.79C39.72 53.63 39.78 53.47 39.87 53.32C39.93 53.25 39.93 53.22 39.87 53.22C39.77 53.22 39.55 53.66 39.46 54.01L39.46 54.01Z" fill="#FFFFFF" fill-opacity="1.000000" fill-rule="nonzero"/>
				<path id="Vector" d="M35.23 57.1L35.11 57.12C34.77 57.31 34.38 57.4 33.99 57.4L33.86 57.4L33.64 57.39C33.58 57.39 33.52 57.37 33.47 57.37C33.33 57.36 33.19 57.34 33.05 57.31C32.92 57.28 32.85 57.28 32.85 57.33C32.85 57.38 32.92 57.41 33.02 57.44C33.05 57.47 33.14 57.5 33.34 57.52C33.36 57.52 33.38 57.52 33.4 57.52C33.99 57.57 34.86 57.5 35.21 57.34C35.3 57.3 35.39 57.25 35.47 57.2C36.23 56.99 36.33 56.92 36.46 56.61C36.62 56.23 36.75 56.09 37.02 56.04C37.41 55.97 37.49 55.93 37.46 55.86C37.42 55.79 36.78 55.79 36.53 55.9C36.22 56.07 35.97 56.33 35.81 56.64C35.67 56.85 35.47 57.01 35.23 57.1L35.23 57.1Z" fill="#FFFFFF" fill-opacity="1.000000" fill-rule="nonzero"/>
				<path id="Vector" d="M38.35 4.87C38.21 4.8 38.04 4.77 37.88 4.78C37.31 4.75 37.07 4.78 37.07 4.87C37.28 4.94 37.5 4.96 37.72 4.94C38.08 4.94 38.37 4.91 38.37 4.87L38.35 4.87Z" fill="#FFFFFF" fill-opacity="1.000000" fill-rule="nonzero"/>
				<path id="Vector" d="M36.04 4.1C36.06 4.1 36.07 4.06 36.07 4.03C36.07 4.02 36.07 4.01 36.06 4C36.06 3.99 36.05 3.98 36.05 3.98C36.04 3.97 36.03 3.96 36.02 3.96C36.01 3.96 36 3.96 35.99 3.96C35.95 3.96 35.94 3.99 35.96 4.03C35.98 4.07 36.02 4.1 36.04 4.1Z" fill="#FFFFFF" fill-opacity="1.000000" fill-rule="nonzero"/>
				<path id="Vector" d="M10.51 6.75C10.2 6.7 9.86 7.38 10.07 7.33C10.29 7.28 10.69 6.83 10.56 6.77C10.56 6.73 10.54 6.73 10.5 6.75L10.51 6.75Z" fill="#FFFFFF" fill-opacity="1.000000" fill-rule="nonzero"/>
				<path id="Vector" d="M11.39 5.81C11.2 5.9 10.87 6.02 10.69 6.08C10.45 6.17 10.37 6.23 10.42 6.28C10.55 6.41 11.78 5.9 11.78 5.7C11.78 5.62 11.82 5.6 11.39 5.81Z" fill="#FFFFFF" fill-opacity="1.000000" fill-rule="nonzero"/>
				<path id="Vector" d="M7.22 50.84C7.8 51.2 8.36 51.6 8.9 52.03C9.08 52.15 9.24 52.24 9.27 52.21C9.3 52.18 9.21 52.08 9.08 51.97C8.95 51.87 8.6 51.6 8.3 51.37C7.6 50.84 7.1 50.54 7.03 50.64C7.01 50.68 7.09 50.77 7.22 50.84Z" fill="#FFFFFF" fill-opacity="1.000000" fill-rule="nonzero"/>
				<path id="Vector" d="M18.91 2.84C18.36 2.84 18.28 2.87 18.08 3.03C17.91 3.15 17.72 3.25 17.53 3.33C17.35 3.4 17.21 3.48 17.23 3.52C17.25 3.59 17.27 3.58 17.82 3.33C18.13 3.19 18.47 3.11 18.82 3.09C19.47 3.04 20.48 2.76 20.73 2.57C20.97 2.37 20.81 2.41 20.1 2.64C19.72 2.79 19.32 2.85 18.91 2.84Z" fill="#FFFFFF" fill-opacity="1.000000" fill-rule="nonzero"/>
				<path id="Vector" d="M20.33 2.05C20.36 2.03 20.32 2.01 20.24 2.02C20.16 2.02 20.14 2.04 20.2 2.06C20.22 2.07 20.24 2.08 20.27 2.08C20.29 2.08 20.31 2.07 20.33 2.06L20.33 2.05Z" fill="#FFFFFF" fill-opacity="1.000000" fill-rule="nonzero"/>
				<path id="Vector" d="M17.6 2.03C17.91 1.91 18.22 1.81 18.53 1.73C18.7 1.69 18.85 1.64 19 1.59C18.85 1.72 19.45 1.47 20.16 1.25C20.5 1.13 20.85 1.03 21.19 0.94C21.29 0.97 21.4 0.97 21.5 0.96C21.72 0.96 21.94 0.96 21.98 0.96C22.11 0.96 22.02 1.1 21.83 1.19C21.46 1.31 20.91 1.58 20.99 1.67C21.06 1.76 21.35 1.51 21.69 1.38C21.9 1.3 22.18 1.25 22.31 1.21C22.37 1.24 22.42 1.29 22.45 1.35C22.55 1.47 22.69 1.57 22.84 1.64L23.11 1.76L22.82 1.85C22.54 1.96 22.23 1.97 21.95 1.86C21.73 1.79 21.69 1.79 21.56 1.93C21.47 2.02 21.41 2.09 21.44 2.11C21.53 2.19 22.76 1.99 23.27 1.81C23.52 1.72 23.77 1.65 24.02 1.6C24.17 1.6 24.17 1.6 24.04 1.53C23.9 1.49 23.75 1.47 23.6 1.47C23.26 1.47 22.99 1.4 22.99 1.32C23.17 1.23 23.36 1.17 23.55 1.15C23.83 1.09 24.1 1 24.37 0.9C24.72 0.72 24.9 0.73 24.95 0.91C25.01 1.14 24.95 1.23 24.62 1.39L24.32 1.54L24.67 1.5C24.94 1.49 25.22 1.5 25.48 1.53C25.57 1.56 25.66 1.58 25.74 1.6C26.01 1.71 26.3 1.76 26.59 1.75C27.07 1.75 27.97 1.81 28.72 1.81C29.46 1.81 29.42 1.76 29.57 1.69C29.62 1.67 29.66 1.64 29.69 1.6C29.85 1.42 30.2 1.42 31.32 1.6C32.02 1.71 32.19 1.76 32.3 1.89C32.36 1.96 32.4 2.05 32.42 2.14C32.42 2.23 32.57 2.28 33.01 2.31C33.15 2.33 33.25 2.31 33.24 2.29C33.15 2.24 33.05 2.22 32.95 2.23C32.87 2.24 32.79 2.22 32.72 2.17C32.65 2.13 32.59 2.06 32.57 1.98C32.39 1.7 32.39 1.59 32.56 1.46C32.66 1.38 32.63 1.37 32.29 1.42C31.94 1.46 31.87 1.44 31.62 1.24C31.49 1.14 31.35 1.05 31.2 0.98C31.1 0.95 31.01 0.89 30.93 0.82C30.84 0.73 30.59 0.68 30.06 0.61C29.17 0.51 29.18 0.51 28.72 0.66L28.34 0.78C28.24 0.81 27.66 0.95 27.48 0.98C27.31 1.01 26.52 1.03 26.12 1.04C25.84 1.04 25.67 1.06 25.53 1.06C25.53 1.04 25.51 1.04 25.47 1.06C25.46 1.06 25.45 1.06 25.44 1.06C25.41 1.05 25.38 1.05 25.35 1.04C25.28 1 25.23 0.95 25.19 0.88C25.16 0.81 25.14 0.74 25.14 0.66C25.17 0.49 25.36 0.41 25.59 0.42C25.67 0.44 25.98 0.72 26.29 0.76C26.59 0.78 26.88 0.72 27.13 0.57C27.3 0.48 27.69 0.27 27.68 0.21L27.95 0.21C28.23 0.22 28.51 0.24 28.78 0.28C28.93 0.31 29.1 0.3 29.24 0.25C29.36 0.19 29.33 0.18 29.09 0.17C28.95 0.19 28.81 0.15 28.7 0.07C28.61 -0.04 27.89 -0.06 27.44 0.02C27.21 0.03 26.98 0.06 26.76 0.11L26.61 0.12C26.58 0.11 26.55 0.11 26.51 0.11C26.46 0.11 26.43 0.12 26.45 0.14L25.64 0.19L24.91 0.24C24.63 0.25 24.35 0.29 24.07 0.34C23.7 0.4 23.32 0.44 22.94 0.46C22.46 0.47 21.99 0.53 21.53 0.65C21.31 0.7 21 0.81 20.72 0.86C20.27 0.97 20.03 1.07 19.76 1.15L19.65 1.18C19.61 1.12 19.62 1.13 19.16 1.34C18.85 1.49 18.53 1.61 18.2 1.69C17.87 1.77 17.55 1.88 17.24 2.02C17.01 2.12 16.71 2.25 16.58 2.3C16.45 2.34 16.36 2.39 16.38 2.41C16.39 2.42 17.08 2.25 17.6 2.03L17.6 2.03ZM26.88 0.26C27.1 0.28 27.27 0.28 27.39 0.28C27.27 0.37 27.13 0.45 26.99 0.52C26.86 0.48 26.73 0.47 26.59 0.48C26.19 0.48 26.05 0.45 25.92 0.34L25.9 0.32C26.22 0.28 26.55 0.26 26.88 0.26ZM25.71 1.2C26.14 1.17 26.66 1.15 27.36 1.17C28.06 1.18 28.11 1.02 28.46 0.93C28.62 0.9 28.78 0.84 28.93 0.78L29.25 0.78C30.12 0.75 30.16 0.75 30.57 0.95C30.73 1 30.88 1.08 31 1.18C31 1.39 29.65 1.49 29.35 1.3C29.12 1.15 28.86 1.09 28.86 1.16C28.86 1.23 29.02 1.37 29.27 1.42C29.75 1.51 29.47 1.59 28.62 1.6L28.46 1.6L28.18 1.6L27.46 1.62C27.46 1.62 26.9 1.59 26.51 1.54L26.31 1.5L26.19 1.48C25.84 1.41 25.52 1.35 25.44 1.34C25.32 1.31 25.26 1.24 25.29 1.2C25.43 1.2 25.57 1.2 25.71 1.18L25.71 1.2ZM22.73 0.73C23.04 0.7 23.34 0.65 23.64 0.58C24.13 0.46 24.48 0.45 24.38 0.55C24.28 0.64 22.92 0.89 22.55 0.89C22.08 0.89 22.2 0.78 22.73 0.73Z" fill="#FFFFFF" fill-opacity="1.000000" fill-rule="nonzero"/>
				<path id="Vector" d="M2.04 45.46L2 45.44C1.85 45.26 1.69 45.14 1.7 45.27C1.75 45.68 2.22 46.05 2.22 45.84C2.22 45.77 2.19 45.69 2.15 45.63C2.19 45.58 2.15 45.53 2.04 45.45L2.04 45.46Z" fill="#FFFFFF" fill-opacity="1.000000" fill-rule="nonzero"/>
				<path id="Vector" d="M8.03 8.73C7.87 8.79 7.74 8.84 7.73 8.84C7.72 8.84 7.71 8.87 7.71 8.91C7.71 9 7.96 8.93 8.25 8.76C8.53 8.59 8.43 8.59 8.03 8.73L8.03 8.73Z" fill="#FFFFFF" fill-opacity="1.000000" fill-rule="nonzero"/>
				<path id="Vector" d="M48.1 45.35C48.27 45.35 48.91 44.73 49.2 44.27C49.61 43.64 49.74 43.19 49.63 42.71L49.55 42.33L49.83 42.09C50.55 41.47 50.74 41.25 50.99 40.75C51.18 40.41 51.28 40.02 51.28 39.63C51.3 39.34 51.28 39.06 51.22 38.78C51.18 38.64 51.11 38.53 51.08 38.53C50.91 38.53 50.89 38.81 51.01 39.46C51.16 40.27 50.79 41.04 49.9 41.74L49.4 42.13L49.4 42.86C49.4 43.51 49.37 43.61 49.18 43.96C48.99 44.27 48.76 44.56 48.49 44.81C47.98 45.28 47.92 45.36 48.09 45.36L48.1 45.35Z" fill="#FFFFFF" fill-opacity="1.000000" fill-rule="nonzero"/>
				<path id="Vector" d="M3.32 13.1C3.42 12.84 2.99 13.3 2.63 13.85C2.58 13.94 2.56 13.94 2.5 13.85C2.45 13.76 2.4 13.79 2.29 14.08L2.21 14.27L2.46 14.09C2.54 14.01 2.65 13.95 2.76 13.91C2.91 13.91 3.22 13.59 3.26 13.39C3.27 13.29 3.29 13.19 3.32 13.09L3.32 13.1Z" fill="#FFFFFF" fill-opacity="1.000000" fill-rule="nonzero"/>
				<path id="Vector" d="M3.99 49.25C3.95 49.25 3.94 49.28 3.96 49.32C3.97 49.34 3.99 49.35 4.01 49.36C4.03 49.38 4.05 49.38 4.07 49.39C4.12 49.39 4.12 49.35 4.1 49.32C4.09 49.3 4.07 49.28 4.05 49.27C4.03 49.26 4.01 49.25 3.99 49.25Z" fill="#FFFFFF" fill-opacity="1.000000" fill-rule="nonzero"/>
				<path id="Vector" d="M51.96 25.87C51.91 26 52.06 26.66 52.16 26.72C52.26 26.78 52.28 26.72 52.19 26.24C52.1 25.76 52.03 25.67 51.96 25.87L51.96 25.87Z" fill="#FFFFFF" fill-opacity="1.000000" fill-rule="nonzero"/>
				<path id="Vector" d="M47.73 43.06C47.35 43.45 47.01 44.16 47.21 44.16C47.24 44.16 47.33 44.01 47.39 43.81C47.49 43.56 47.64 43.32 47.82 43.12C48.22 42.69 48.14 42.65 47.72 43.06L47.73 43.06Z" fill="#FFFFFF" fill-opacity="1.000000" fill-rule="nonzero"/>
				<path id="Vector" d="M51.43 29.92C51.43 30.2 51.44 30.23 51.6 30.23C51.64 30.23 51.68 30.23 51.72 30.25C51.76 30.27 51.79 30.3 51.82 30.33C51.91 30.58 51.99 30.41 51.95 30.05C51.92 29.73 51.93 29.67 52.03 29.67C52.17 29.67 52.19 29.42 52.04 29.37C51.98 29.34 51.94 29.14 51.91 28.71C51.9 28.43 51.85 28.14 51.78 27.87C51.64 27.53 51.48 27.57 51.61 27.92C51.69 28.18 51.75 28.45 51.8 28.73L51.89 29.25L51.66 29.43C51.58 29.48 51.51 29.55 51.48 29.64C51.44 29.73 51.43 29.82 51.44 29.92L51.43 29.92Z" fill="#FFFFFF" fill-opacity="1.000000" fill-rule="nonzero"/>
				<path id="Vector" d="M53.64 34.37C53.64 34.56 53.83 34.74 53.93 34.63C54.1 34.22 54.21 33.8 54.26 33.36C54.28 33.22 54.26 33.15 54.22 33.15C54.12 33.15 53.64 34.15 53.64 34.37L53.64 34.37Z" fill="#FFFFFF" fill-opacity="1.000000" fill-rule="nonzero"/>
				<path id="Vector" d="M52.78 30.44C52.78 30.21 52.76 30.16 52.65 30.16C52.53 30.16 52.51 30.21 52.48 30.41C52.46 30.66 52.44 30.68 52.23 30.7C52.01 30.72 51.99 30.75 52.01 30.88C52.03 31 52.09 31.03 52.25 31.05C52.41 31.06 52.5 31.13 52.63 31.38C52.79 31.67 52.92 31.78 52.92 31.62C52.89 31.49 52.84 31.37 52.77 31.26C52.65 31.03 52.64 30.94 52.7 30.84C52.76 30.71 52.78 30.57 52.78 30.43L52.78 30.44Z" fill="#FFFFFF" fill-opacity="1.000000" fill-rule="nonzero"/>
				<path id="Vector" d="M51.96 34.83C52.14 34.71 52.29 34.55 52.4 34.37C52.51 34.21 52.64 34.05 52.78 33.92C52.87 33.92 52.92 33.71 52.87 33.53C52.81 33.28 52.63 33.32 52.63 33.59C52.63 33.77 52.55 33.91 52.24 34.25C51.83 34.71 51.78 34.83 51.95 34.83L51.96 34.83Z" fill="#FFFFFF" fill-opacity="1.000000" fill-rule="nonzero"/>
				<path id="Vector" d="M51.26 16.2C51.21 16.39 51.17 16.58 51.14 16.77C51.06 17.21 51.06 17.29 51.14 17.38C51.22 17.47 51.26 17.46 51.36 17.35C51.49 17.21 51.53 16.9 51.45 16.45C51.4 16.17 51.31 16.08 51.23 16.2L51.26 16.2Z" fill="#FFFFFF" fill-opacity="1.000000" fill-rule="nonzero"/>
				<path id="Vector" d="M53.11 31.84C53.04 31.72 52.94 31.75 52.89 31.88C52.87 31.97 52.84 32.07 52.81 32.16C52.78 32.27 52.8 32.32 52.87 32.32C52.99 32.32 53.17 31.94 53.1 31.84L53.11 31.84Z" fill="#FFFFFF" fill-opacity="1.000000" fill-rule="nonzero"/>
				<path id="Vector" d="M54.72 29.92C54.83 29.82 54.94 29.71 54.94 29.68C54.94 29.49 54.66 29.71 54.42 30.09C54.24 30.37 54.15 31.18 54.25 31.73C54.34 32.23 54.57 32.67 54.76 32.67C54.92 32.67 54.89 32.55 54.68 32.39C54.42 32.2 54.3 31.82 54.29 31.23C54.29 30.64 54.45 30.14 54.73 29.92L54.72 29.92Z" fill="#FFFFFF" fill-opacity="1.000000" fill-rule="nonzero"/>
				<path id="Vector" d="M52.66 19.47C52.98 19.73 53.03 19.59 52.8 19.11C52.68 18.9 52.55 18.59 52.5 18.47C52.39 18.21 52.23 18.18 52.17 18.42C52.1 18.65 52.4 19.26 52.66 19.48L52.66 19.47Z" fill="#FFFFFF" fill-opacity="1.000000" fill-rule="nonzero"/>
				<path id="Vector" d="M51.6 21.39C51.66 21.23 51.56 21.18 51.44 21.32C51.32 21.46 51.28 21.71 51.28 22.1C51.28 22.79 51.36 23.11 51.66 23.56C51.77 23.68 51.86 23.83 51.91 23.99C51.96 24.14 51.98 24.31 51.96 24.47C51.96 25.01 52.07 25.13 52.24 24.8C52.41 24.46 52.38 24.23 52.04 23.73C51.61 23.07 51.48 22.67 51.52 22.06C51.53 21.83 51.56 21.61 51.6 21.39Z" fill="#FFFFFF" fill-opacity="1.000000" fill-rule="nonzero"/>
				<path id="Vector" d="M53.53 20.4C53.55 20.37 53.56 20.33 53.56 20.3C53.56 20.27 53.55 20.24 53.53 20.21C53.48 20.05 53.36 20 53.36 20.14C53.36 20.29 53.48 20.44 53.53 20.4Z" fill="#FFFFFF" fill-opacity="1.000000" fill-rule="nonzero"/>
				<path id="Vector" d="M52.1 20.42C52.06 20.47 52.13 20.57 52.28 20.68C52.98 21.19 53.67 22.23 53.66 22.75C53.66 22.9 53.63 23.04 53.58 23.18C53.51 23.36 53.46 23.54 53.43 23.73C53.35 24.24 53.43 24.65 53.82 25.5L54.06 26.05L53.95 26.56C53.81 27.16 53.85 27.79 54.07 28.37C54.23 28.77 54.45 28.98 54.58 28.85C54.63 28.8 54.62 28.57 54.53 28.16C54.39 27.49 54.38 26.41 54.51 26.18C54.56 26.07 54.53 25.95 54.36 25.57C53.98 24.79 53.92 24.5 53.96 23.76C53.98 23.38 54.01 22.95 54.04 22.79C54.08 22.53 54.04 22.42 53.81 21.96C53.53 21.4 53.12 20.91 52.61 20.53C52.31 20.32 52.18 20.28 52.1 20.42Z" fill="#FFFFFF" fill-opacity="1.000000" fill-rule="nonzero"/>
				<path id="Vector" d="M44.94 11.8C44.78 11.34 44.59 11.16 44.68 11.56C44.77 11.91 44.96 12.23 45.22 12.5C45.38 12.63 45.36 12.54 45.18 12.32C45.08 12.16 45 11.98 44.94 11.8Z" fill="#FFFFFF" fill-opacity="1.000000" fill-rule="nonzero"/>
				<path id="Vector" d="M44.78 9C44.52 8.87 44.29 8.67 44.13 8.43C43.8 7.96 43.55 7.94 43.8 8.4C44.02 8.82 44.76 9.33 45.13 9.33C45.34 9.33 45.27 9.25 44.78 9L44.78 9Z" fill="#FFFFFF" fill-opacity="1.000000" fill-rule="nonzero"/>
				<path id="Vector" d="M44.36 49.49C44.31 49.55 44.3 49.6 44.34 49.6C44.4 49.58 44.46 49.54 44.5 49.49C44.55 49.44 44.56 49.39 44.51 49.39C44.45 49.4 44.4 49.44 44.36 49.49Z" fill="#FFFFFF" fill-opacity="1.000000" fill-rule="nonzero"/>
				<path id="Vector" d="M30.5 0.23C30.75 0.25 31 0.3 31.24 0.39C31.41 0.47 31.43 0.47 31.43 0.37C31.43 0.26 31.49 0.26 31.68 0.28C31.87 0.3 31.9 0.28 31.86 0.24C31.71 0.17 31.54 0.13 31.38 0.12C31.15 0.09 30.53 0.07 30 0.07C29.23 0.07 29.13 0.09 29.5 0.13C29.76 0.16 30.21 0.2 30.5 0.23Z" fill="#FFFFFF" fill-opacity="1.000000" fill-rule="nonzero"/>
				<path id="Vector" d="M47.18 46.32C47.27 46.28 47.28 46.26 47.21 46.26C47.14 46.26 47.06 46.29 46.99 46.32C46.87 46.41 46.98 46.41 47.17 46.32L47.18 46.32Z" fill="#FFFFFF" fill-opacity="1.000000" fill-rule="nonzero"/>
				<path id="Vector" d="M46.67 46.59C46.79 46.52 46.85 46.46 46.79 46.46C46.63 46.46 46.01 47.13 45.85 47.46C45.69 47.79 45.67 48.17 45.79 48.25C45.85 48.27 45.86 48.22 45.83 48.08C45.74 47.7 46.21 46.87 46.67 46.6L46.67 46.59Z" fill="#FFFFFF" fill-opacity="1.000000" fill-rule="nonzero"/>
				<path id="Vector" d="M46.82 16.15C47.25 16.57 47.43 16.52 47.04 16.08C46.74 15.77 46.54 15.63 46.48 15.72C46.57 15.88 46.68 16.03 46.83 16.14L46.82 16.15Z" fill="#FFFFFF" fill-opacity="1.000000" fill-rule="nonzero"/>
				<path id="Vector" d="M46.26 44.15C46.29 44.12 46.31 44.08 46.33 44.04C46.34 44 46.35 43.95 46.34 43.91C46.31 43.79 46.31 43.79 46.23 43.93C46.1 44.15 46.11 44.29 46.26 44.14L46.26 44.15Z" fill="#FFFFFF" fill-opacity="1.000000" fill-rule="nonzero"/>
				<path id="Vector" d="M45.79 46.18C45.87 46.18 46.21 45.53 46.21 45.38C46.21 45.16 46.1 45.3 45.92 45.73C45.81 45.98 45.75 46.18 45.79 46.18Z" fill="#FFFFFF" fill-opacity="1.000000" fill-rule="nonzero"/>
				<path id="Vector" d="M27.33 57.17C27.33 57.18 27.32 57.19 27.33 57.2C27.33 57.33 27.37 57.33 27.56 57.24C27.63 57.22 27.71 57.18 27.77 57.13C28.11 56.93 28.49 56.81 28.89 56.77C29.24 56.75 29.54 56.82 29.79 56.77C29.95 56.78 30.07 56.76 30.04 56.71C30.14 56.67 30.15 56.63 29.84 56.58C29.17 56.47 29.02 56.48 28.51 56.65L28.34 56.7C28.14 56.76 27.94 56.83 27.75 56.92C27.6 56.96 27.46 57.05 27.34 57.17L27.33 57.17Z" fill="#FFFFFF" fill-opacity="1.000000" fill-rule="nonzero"/>
				<path id="Vector" d="M30.57 55.18C29.66 55.48 29.51 55.82 29.67 55.92C29.83 56.03 29.95 55.61 30.48 55.48C31 55.34 31.36 55.25 31.63 55.28C31.89 55.32 31.93 55.18 31.93 55.18C31.49 55.05 31.01 55.05 30.57 55.18Z" fill="#FFFFFF" fill-opacity="1.000000" fill-rule="nonzero"/>
				<path id="Vector" d="M26.98 55.74C26.68 55.66 26.36 55.69 26.08 55.82C25.71 55.99 25.77 56.09 25.89 56.16C26.01 56.22 26.18 55.98 26.54 55.93C26.9 55.89 27.31 55.81 26.99 55.74L26.98 55.74Z" fill="#FFFFFF" fill-opacity="1.000000" fill-rule="nonzero"/>
				<path id="Vector" d="M23.86 56.85C24.29 56.83 24.47 56.79 24.8 56.91C25.13 57.03 25.26 57.26 25.44 57.17C25.68 57.06 25.47 56.78 24.78 56.71C24.08 56.64 24.15 56.49 23.45 56.7C22.74 56.91 22.67 57.01 22.77 57.12C22.87 57.23 23.42 56.86 23.86 56.85L23.86 56.85Z" fill="#FFFFFF" fill-opacity="1.000000" fill-rule="nonzero"/>
				<path id="Vector" d="M33.15 57.05C33.17 57.06 33.22 57.03 33.28 56.98C33.34 56.95 33.4 56.9 33.44 56.85C33.52 56.79 33.61 56.72 33.73 56.64C34.01 56.45 34.17 56.34 34.48 56.33C34.5 56.34 34.52 56.34 34.54 56.34C34.56 56.34 34.58 56.34 34.6 56.33L34.77 56.34C35.31 56.4 35.3 56.33 35.3 56.33C35.3 56.33 35.32 56.32 35.32 56.31C35.39 56.2 35.35 56.09 34.63 56.17C34.11 56.21 33.62 56.39 33.21 56.7C33.07 56.85 33.08 57.03 33.14 57.05L33.15 57.05Z" fill="#FFFFFF" fill-opacity="1.000000" fill-rule="nonzero"/>
				<path id="Vector" d="M19.23 57.04C19.97 56.92 20.1 57.08 20.37 57.25C20.37 57.25 20.49 57.19 20.37 57.04C20.24 56.89 20.05 56.85 19.42 56.83C18.79 56.81 18.21 56.96 18.27 57.16C18.33 57.35 18.49 57.14 19.23 57.03L19.23 57.04Z" fill="#FFFFFF" fill-opacity="1.000000" fill-rule="nonzero"/>
				<path id="Vector" d="M15.76 55.74C15.32 55.46 15.55 55.8 15.7 55.96C15.86 56.11 15.92 56.06 16.37 56.4L16.69 56.5C16.86 56.56 16.21 56.04 15.76 55.75L15.76 55.74Z" fill="#FFFFFF" fill-opacity="1.000000" fill-rule="nonzero"/>
				<path id="Vector" d="M14.17 55.55C14.36 55.7 14.47 55.58 14.69 55.64C14.91 55.71 15.23 55.73 15.06 55.64C14.89 55.53 14.69 55.46 14.49 55.45C14.47 55.45 14.45 55.45 14.43 55.45C14.19 55.42 13.98 55.4 14.17 55.55L14.17 55.55Z" fill="#FFFFFF" fill-opacity="1.000000" fill-rule="nonzero"/>
				<path id="Vector" d="M7.87 49.58C7.44 49.16 6.71 48.69 7.03 49.15C7.62 49.99 8.3 50.01 7.87 49.58Z" fill="#FFFFFF" fill-opacity="1.000000" fill-rule="nonzero"/>
				<path id="Vector" d="M8.49 50.16C8.8 50.5 9.26 50.61 8.87 50.27C8.47 49.93 8.18 49.82 8.49 50.16Z" fill="#FFFFFF" fill-opacity="1.000000" fill-rule="nonzero"/>
				<path id="Vector" d="M6.61 49.39C6.08 48.76 5.6 48.3 5.65 48.51C5.89 49.39 7.13 50.03 6.61 49.39Z" fill="#FFFFFF" fill-opacity="1.000000" fill-rule="nonzero"/>
				<path id="Vector" d="M4.27 47.16C4.36 47.16 4.35 47.12 4.22 47.02C4.09 46.91 4 46.88 3.97 46.89C3.66 46.59 3.3 46.25 3.27 46.31C3.17 46.55 3 46.51 3.66 46.97C4.32 47.44 4.6 47.44 4.27 47.16Z" fill="#FFFFFF" fill-opacity="1.000000" fill-rule="nonzero"/>
				<path id="Vector" d="M0.55 42.93C0.48 43.39 0.85 44.57 1.12 44.13C1.14 44.09 1.16 44.04 1.16 43.99C1.18 43.99 1.18 43.99 1.16 43.94C1.19 43.45 0.57 42.72 0.54 42.93L0.55 42.93Z" fill="#FFFFFF" fill-opacity="1.000000" fill-rule="nonzero"/>
				<path id="Vector" d="M49.3 39.8C49.3 39.8 49.3 39.8 49.3 39.81C49.3 39.83 49.35 39.8 49.37 39.74C49.84 39.35 49.81 39.22 49.64 39.24C49.39 39.32 49.17 39.47 49.01 39.68C48.86 39.89 48.78 40.14 48.79 40.4C48.84 40.99 48.88 41.58 49.01 40.92C49.12 40.31 48.94 40.14 49.31 39.8L49.3 39.8Z" fill="#FFFFFF" fill-opacity="1.000000" fill-rule="nonzero"/>
				<path id="Vector" d="M50.77 31.39C50.83 31.33 50.86 31.25 50.84 31.23C50.82 31.21 50.81 31.23 50.79 31.23C50.78 31.2 50.76 31.18 50.71 31.2C50.11 31.35 49.94 32.35 50.11 33.25C50.25 33.96 50.51 34.15 50.56 34.02C50.58 34.04 50.6 34.04 50.61 34.02C50.61 33.96 50.59 33.9 50.55 33.85C50.44 33.49 50.08 32.66 50.41 32.11C50.55 31.88 50.68 31.63 50.77 31.37L50.77 31.39Z" fill="#FFFFFF" fill-opacity="1.000000" fill-rule="nonzero"/>
				<path id="Vector" d="M47.65 18.91C47.53 18.82 47.41 18.74 47.28 18.67C47.25 18.57 46.93 18.18 46.92 18.25C46.91 18.21 46.9 18.18 46.88 18.14C46.87 18.1 46.89 18.11 46.88 18.07C46.87 18.05 46.86 18.02 46.84 18C46.8 17.84 46.77 17.68 46.74 17.52C46.77 17.55 46.78 17.52 46.78 17.42C46.78 17.32 46.75 17.27 46.71 17.27L46.68 17.27C46.48 17.31 46.46 17.62 46.71 18.34C46.96 19.11 47.68 19 47.65 18.92L47.65 18.91ZM47.09 18.49C47.03 18.43 46.98 18.36 46.95 18.28C46.97 18.33 47.03 18.41 47.09 18.49Z" fill="#FFFFFF" fill-opacity="1.000000" fill-rule="nonzero"/>
				<path id="Vector" d="M0.62 17.43C0.95 17.37 1.28 16.92 1.09 16.85C1.07 16.84 1.04 16.84 1.02 16.85C0.99 16.85 0.96 16.87 0.93 16.89C0.69 17.04 0.36 17.48 0.62 17.43L0.62 17.43Z" fill="#FFFFFF" fill-opacity="1.000000" fill-rule="nonzero"/>
				<path id="Vector" d="M0.56 17.64C0.55 17.63 0.54 17.62 0.52 17.61C0.34 17.55 -0.13 18.11 0.04 18.16C0.21 18.22 0.64 17.8 0.57 17.65L0.56 17.64Z" fill="#FFFFFF" fill-opacity="1.000000" fill-rule="nonzero"/>
				<path id="Vector" d="M0.67 16.89C0.84 16.85 1.06 16.29 0.95 16.25C0.85 16.22 0.49 16.93 0.67 16.89Z" fill="#FFFFFF" fill-opacity="1.000000" fill-rule="nonzero"/>
				<path id="Vector" d="M2.32 15.47C2.1 15.32 1.85 15.85 2.1 15.75C2.36 15.65 2.43 15.54 2.32 15.47Z" fill="#FFFFFF" fill-opacity="1.000000" fill-rule="nonzero"/>
				<path id="Vector" d="M3.64 12.02C3.52 11.99 3.18 12.44 3.28 12.51C3.37 12.58 4 12.1 3.64 12.02Z" fill="#FFFFFF" fill-opacity="1.000000" fill-rule="nonzero"/>
				<path id="Vector" d="M2.82 13.17C3 13.22 3.53 12.66 3.33 12.62L3.3 12.62C3.26 12.62 3.22 12.63 3.18 12.65C2.73 12.8 2.62 13.1 2.82 13.17L2.82 13.17Z" fill="#FFFFFF" fill-opacity="1.000000" fill-rule="nonzero"/>
				<path id="Vector" d="M4.12 12.97C4.14 12.98 4.16 12.98 4.18 12.98C4.2 12.98 4.22 12.97 4.24 12.96C4.26 12.95 4.28 12.94 4.29 12.92C4.31 12.9 4.31 12.89 4.32 12.87C4.33 12.85 4.33 12.82 4.32 12.8C4.32 12.78 4.31 12.76 4.3 12.75C4.29 12.73 4.27 12.71 4.25 12.7C4.24 12.69 4.21 12.69 4.19 12.68C4.05 12.66 3.9 12.92 4.12 12.97Z" fill="#FFFFFF" fill-opacity="1.000000" fill-rule="nonzero"/>
				<path id="Vector" d="M5.05 11.23C4.86 11.16 4.16 11.58 4.37 11.74C4.58 11.91 5.21 11.29 5.05 11.23Z" fill="#FFFFFF" fill-opacity="1.000000" fill-rule="nonzero"/>
				<path id="Vector" d="M7.13 10.62C6.97 10.5 5.85 11.05 5.87 11.22C5.9 11.5 7.29 10.73 7.13 10.62Z" fill="#FFFFFF" fill-opacity="1.000000" fill-rule="nonzero"/>
				<path id="Vector" d="M5.94 10.43C5.76 10.31 5.37 10.8 5.46 10.86C5.54 10.93 6.11 10.53 5.94 10.43Z" fill="#FFFFFF" fill-opacity="1.000000" fill-rule="nonzero"/>
				<path id="Vector" d="M5.71 9.8C5.6 9.74 4.81 10.2 4.86 10.41C4.92 10.68 5.82 9.85 5.71 9.8Z" fill="#FFFFFF" fill-opacity="1.000000" fill-rule="nonzero"/>
				<path id="Vector" d="M6.66 9.01C6.98 8.78 7.82 8.35 7.77 8.28C7.75 8.26 7.7 8.28 7.64 8.31C7.66 8.3 7.67 8.29 7.67 8.28C7.73 8.2 7.7 8.2 7.57 8.28C7.5 8.32 7.5 8.35 7.55 8.35C7.56 8.35 7.57 8.35 7.58 8.35C7.51 8.39 7.44 8.43 7.37 8.46C7.37 8.43 7.33 8.42 7.28 8.4C7.52 8.17 7.79 7.98 8.08 7.82C8.45 7.61 8.95 7.43 8.9 7.38C8.84 7.34 8.74 7.4 8.39 7.5C8.15 7.6 7.92 7.72 7.7 7.87C7.73 7.84 7.75 7.8 7.76 7.76C7.95 7.59 8.21 7.34 8.27 7.27C8.36 7.15 8.58 6.88 8.43 6.99C8.28 7.09 7.51 7.77 7.51 7.77L6.81 8.59C6.81 8.59 5.81 9.4 5.86 9.47C6.06 9.73 6.34 9.26 6.66 9.02L6.66 9.01Z" fill="#FFFFFF" fill-opacity="1.000000" fill-rule="nonzero"/>
				<path id="Vector" d="M10.4 8.48C10.66 8.36 11.26 8.11 10.88 8.07C10.62 8.04 9.46 8.6 9.51 8.88C9.57 9.16 10.14 8.6 10.4 8.48Z" fill="#FFFFFF" fill-opacity="1.000000" fill-rule="nonzero"/>
				<path id="Vector" d="M11.71 7.93C11.66 7.9 11.6 7.89 11.55 7.89C11.49 7.89 11.44 7.91 11.39 7.94C11.34 7.97 11.31 8.01 11.28 8.06C11.26 8.11 11.25 8.16 11.25 8.22C11.29 8.39 11.85 7.99 11.72 7.93L11.71 7.93Z" fill="#FFFFFF" fill-opacity="1.000000" fill-rule="nonzero"/>
				<path id="Vector" d="M14.34 6.88C14.34 6.82 14.33 6.79 14.25 6.77C14.22 6.75 14.19 6.75 14.16 6.75L14.05 6.75C13.6 6.74 12.68 7.18 12.75 7.37C12.82 7.56 13.25 7.09 13.62 7.06C13.98 7.04 14.35 6.97 14.35 6.88L14.34 6.88Z" fill="#FFFFFF" fill-opacity="1.000000" fill-rule="nonzero"/>
				<path id="Vector" d="M8.59 6.93C8.85 6.91 9.62 6.29 9.51 6.25C9.2 6.14 8.33 6.94 8.59 6.93Z" fill="#FFFFFF" fill-opacity="1.000000" fill-rule="nonzero"/>
				<path id="Vector" d="M9.95 6.19C10.04 6.22 10.52 5.75 10.75 5.53C10.89 5.46 11.05 5.4 11.21 5.37C11.47 5.31 11.5 5.31 11.46 5.44C11.43 5.51 11.45 5.57 11.48 5.57C11.86 5.45 12.23 5.28 12.57 5.08C12.97 4.83 13.1 4.82 12.81 5.05C12.67 5.15 12.64 5.21 12.7 5.22C12.82 5.22 13.08 4.99 13.38 4.62C13.55 4.44 13.74 4.29 13.95 4.17C14.17 4.04 14.55 3.81 14.77 3.67C15.16 3.42 15.23 3.39 15.6 3.42C15.92 3.44 15.97 3.42 15.87 3.35C15.78 3.3 15.68 3.27 15.58 3.27C15.3 3.27 15.4 3.09 15.85 2.76C16.39 2.36 16.32 2.34 15.67 2.71C15.5 2.83 15.3 2.92 15.1 2.99C15.05 2.99 15.06 3.01 15.12 3.05C15.26 3.14 14.87 3.44 14.37 3.61C13.53 3.97 12.71 4.39 11.94 4.88C11.62 5.09 11.47 5.15 11.31 5.13L11.27 5.13C11.49 5.01 11.84 4.81 12.07 4.66C12.38 4.44 12.48 4.36 12.51 4.27C12.79 4.17 13.07 4.03 13.33 3.88C13.54 3.75 13.76 3.65 13.98 3.55C14.33 3.43 14.67 3.27 14.98 3.09C14.98 3.04 14.88 3.06 14.77 3.13C14.58 3.21 14.39 3.28 14.2 3.34C13.94 3.42 13.69 3.53 13.45 3.67C13.31 3.77 13.15 3.86 12.99 3.93C12.76 4 12.55 4.12 12.37 4.28C12.33 4.3 12.29 4.32 12.24 4.35C12.09 4.42 11.94 4.51 11.81 4.62C11.51 4.81 11.18 5.03 10.94 5.19C10.85 5.23 10.77 5.28 10.7 5.35L10.59 5.43L10.64 5.43C10.31 5.7 9.83 6.15 9.94 6.19L9.95 6.19ZM12.98 4.39C13.11 4.32 13.24 4.25 13.37 4.16C13.43 4.1 13.69 4.07 13.69 4.13C13.69 4.25 12.13 5.14 11.91 5.14C11.75 5.16 12.32 4.73 12.99 4.39L12.98 4.39Z" fill="#FFFFFF" fill-opacity="1.000000" fill-rule="nonzero"/>
				<path id="Vector" d="M16.78 3.55C16.78 3.55 16.77 3.55 16.76 3.55C16.74 3.55 16.73 3.56 16.72 3.57C16.55 3.67 16.13 4.11 15.65 4.31C15.09 4.54 14.35 4.92 13.93 4.94L13.8 4.94C13.58 4.94 13.46 4.96 13.46 4.99C13.37 5.02 13.34 5.06 13.41 5.11C13.55 5.23 14.17 5.08 14.66 4.92C15.11 4.79 15.52 4.6 15.9 4.35C16.28 4.09 16.97 3.63 16.77 3.55L16.78 3.55Z" fill="#FFFFFF" fill-opacity="1.000000" fill-rule="nonzero"/>
				<path id="Vector" d="M17.9 4.41C18.62 4.36 19.26 3.97 19.25 3.9C19.23 3.83 19.54 3.69 19.09 3.87C18.76 4.04 18.4 4.14 18.03 4.17C17.93 4.18 17.83 4.18 17.73 4.17L17.72 4.17C17.66 4.17 17.61 4.15 17.55 4.14C17.53 4.12 17.5 4.12 17.48 4.12C17.45 4.12 17.43 4.12 17.4 4.14C17.37 4.13 17.34 4.14 17.31 4.15C17.28 4.16 17.25 4.18 17.23 4.2C17.12 4.33 17.18 4.45 17.91 4.4L17.9 4.41Z" fill="#FFFFFF" fill-opacity="1.000000" fill-rule="nonzero"/>
				<path id="Vector" d="M21.84 3.41C22.14 3.22 22.6 3.03 22.92 3.15C23.26 3.29 23.62 3.37 23.98 3.41C24.09 3.38 24.56 3.39 24.28 3.25C24.33 3.25 24.35 3.23 24.34 3.21C24.21 3.14 24.07 3.1 23.92 3.1L23.69 3.07C23.33 2.99 22.97 2.96 22.6 2.98C22.19 3.06 21.87 3.3 21.46 3.35C21.14 3.39 20.81 3.41 20.49 3.42L20.36 3.42L20.34 3.42C19.95 3.38 19.5 3.51 19.48 3.68C19.47 3.86 19.81 3.62 19.95 3.6C20.09 3.58 20.1 3.58 20.6 3.65C21.03 3.71 21.46 3.63 21.83 3.42L21.84 3.41Z" fill="#FFFFFF" fill-opacity="1.000000" fill-rule="nonzero"/>
				<path id="Vector" d="M22.81 4.35C23.5 4.35 24.01 4.08 23.94 4.02C23.86 3.96 23.24 4.23 22.91 4.18C22.57 4.14 22.25 3.96 22.1 4.07C21.94 4.18 22.11 4.34 22.81 4.35Z" fill="#FFFFFF" fill-opacity="1.000000" fill-rule="nonzero"/>
				<path id="Vector" d="M18.79 2.12C18.91 2.03 18.86 1.85 19.23 2.07C19.6 2.3 19.85 2.36 20.1 2.3C20.35 2.24 20.56 2.08 20.51 2.04C20.46 2 20.21 2.23 19.82 2.07L19.75 2.04C19.69 2.01 19.62 1.98 19.55 1.96C19.24 1.82 18.93 1.71 18.77 1.89C18.51 2.2 18.17 2.42 17.79 2.53C17.25 2.7 16.37 2.91 16.53 3.12C16.66 3.29 17.19 2.95 17.52 2.81C17.96 2.6 18.39 2.37 18.8 2.12L18.79 2.12Z" fill="#FFFFFF" fill-opacity="1.000000" fill-rule="nonzero"/>
				<path id="Vector" d="M28.1 3.17L28.13 3.16C28.66 2.91 29.37 2.56 29.6 2.64C29.66 2.66 29.73 2.69 29.79 2.72C30.19 2.91 30.64 3.02 31.09 3.04C32.06 3.11 32.41 2.78 32.42 2.76L32.31 2.66C32.31 2.66 31.99 2.96 31.1 2.9C30.66 2.88 30.23 2.78 29.84 2.59C29.77 2.56 29.71 2.53 29.64 2.5C29.37 2.41 28.82 2.66 28.06 3.03L28.02 3.05C27.47 3.31 27.22 3.2 26.65 2.95L26.61 2.93C26.52 2.89 26.44 2.86 26.37 2.83L26.44 2.83C26.48 2.81 26.44 2.8 26.31 2.8L26.25 2.8C26.15 2.75 26.05 2.73 25.94 2.74C25.83 2.74 25.73 2.77 25.63 2.82C25.34 2.93 25.02 3.01 24.71 3.04L24.72 3.18C25.06 3.14 25.38 3.07 25.7 2.94C25.91 2.85 25.99 2.82 26.57 3.06L26.61 3.08C26.87 3.23 27.17 3.31 27.47 3.34C27.69 3.33 27.91 3.28 28.1 3.17L28.1 3.17Z" fill="#FFFFFF" fill-opacity="1.000000" fill-rule="nonzero"/>
				<path id="Vector" d="M39.05 6.66C38.9 6.51 38.42 6.46 38.05 6.2C37.68 5.94 37.22 5.4 37.22 5.55C37.22 5.76 37.41 6.26 38.09 6.54C38.76 6.81 39.19 6.8 39.04 6.66L39.05 6.66Z" fill="#FFFFFF" fill-opacity="1.000000" fill-rule="nonzero"/>
				<path id="Vector" d="M47.73 12.63C47.7 12.13 47.47 11.65 47.09 11.31C46.65 10.94 46.45 10.63 45.87 10.42L45.85 10.42L45.84 10.42L45.76 10.4C45.22 10.23 44.89 10.31 45.26 10.58C45.79 11 46.57 11.11 46.99 11.71C47.41 12.32 47.39 12.22 47.53 12.83C47.66 13.44 48.12 13.85 48.03 13.6C47.87 13.3 47.77 12.98 47.72 12.64L47.73 12.63Z" fill="#FFFFFF" fill-opacity="1.000000" fill-rule="nonzero"/>
			</g>
		</g>
		<mask id="mask166_2375" mask-type="alpha" maskUnits="userSpaceOnUse" x="7.000000" y="21.000000" width="39.000000" height="18.000000">
			<path id="Vector" d="M7 21L46 21L46 39L7 39L7 21Z" fill="#000000" fill-opacity="1.000000" fill-rule="evenodd"/>
		</mask>
		<g mask="url(#mask166_2375)">
			<path id="Vector" d="M9.43 24.49L9.43 39L7.25 39L7.25 21L10 21L16.96 36.73L23.9 21L26.62 21L26.62 39L24.45 39L24.45 24.54L17.94 39L15.96 39L9.43 24.49ZM30.77 39L30.77 21L38.6 21C42.63 21 45.84 23.57 45.84 27.12C45.84 30.54 42.44 33.26 38.6 33.26L32.94 33.26L32.94 39L30.77 39ZM43.66 27.12C43.66 24.7 41.51 22.92 38.6 22.92L32.94 22.92L32.94 31.33L38.6 31.33C41.4 31.33 43.66 29.48 43.66 27.12Z" fill="#FFFFFF" fill-opacity="1.000000" fill-rule="nonzero"/>
		</g>
		<path id="Vector" d="M78.08 26.48L78.08 35.5L75.28 35.5L75.28 21.5L78.84 21.5L83.36 32.16L87.86 21.5L91.41 21.5L91.41 35.5L88.62 35.5L88.62 26.52L84.76 35.5L81.93 35.5L78.08 26.48ZM93.37 28.52C93.37 24.3 96.65 21.2 101.05 21.2C105.43 21.2 108.71 24.14 108.71 28.52C108.71 32.84 105.43 35.8 101.05 35.8C96.67 35.8 93.37 32.68 93.37 28.52ZM96.17 28.52C96.17 31.22 98.21 33.12 101.05 33.12C103.95 33.12 105.91 31.22 105.91 28.52C105.91 25.76 103.95 23.88 101.05 23.88C98.19 23.88 96.17 25.76 96.17 28.52ZM110.03 28.52C110.03 24.3 113.31 21.2 117.71 21.2C122.09 21.2 125.37 24.14 125.37 28.52C125.37 32.84 122.09 35.8 117.71 35.8C113.33 35.8 110.03 32.68 110.03 28.52ZM112.83 28.52C112.83 31.22 114.87 33.12 117.71 33.12C120.61 33.12 122.57 31.22 122.57 28.52C122.57 25.76 120.61 23.88 117.71 23.88C114.85 23.88 112.83 25.76 112.83 28.52ZM130.11 26.16L130.11 35.5L127.31 35.5L127.31 21.5L129.55 21.5L138.25 30.78L138.25 21.5L141.05 21.5L141.05 35.5L138.79 35.5L130.11 26.16ZM143.58 35.5L143.58 21.5L146.38 21.5L146.38 32.82L154.7 32.82L154.7 35.5L143.58 35.5ZM160.03 21.5L160.03 35.5L157.23 35.5L157.23 21.5L160.03 21.5ZM164.58 28.52C164.58 31.28 166.6 33.2 169.42 33.2C171.56 33.2 173.22 31.96 173.78 30.02L169.28 30.02L169.28 27.68L177.02 27.68L177.02 35.5L174.5 35.5L174.28 33.62C172.96 35.02 171.18 35.8 169.08 35.8C164.9 35.8 161.78 32.68 161.78 28.52C161.78 24.3 164.92 21.2 169.26 21.2C172.84 21.2 175.64 23.24 176.54 26.46L173.74 26.46C172.98 24.8 171.34 23.78 169.24 23.78C166.52 23.78 164.58 25.74 164.58 28.52ZM179.24 35.5L179.24 21.5L182.04 21.5L182.04 27.2L189.7 27.2L189.7 21.5L192.5 21.5L192.5 35.5L189.7 35.5L189.7 29.78L182.04 29.78L182.04 35.5L179.24 35.5ZM199.1 35.5L199.1 24.08L194.14 24.08L194.14 21.5L206.82 21.5L206.82 24.08L201.9 24.08L201.9 35.5L199.1 35.5ZM208.78 35.5L208.78 21.5L214.54 21.5C217.5 21.5 219.86 23.5 219.86 26.26C219.86 28.92 217.36 31.04 214.54 31.04L210.38 31.04L210.38 35.5L208.78 35.5ZM218.26 26.26C218.26 24.38 216.68 23 214.54 23L210.38 23L210.38 29.54L214.54 29.54C216.6 29.54 218.26 28.1 218.26 26.26ZM219.46 35.5L225.92 21.5L227.66 21.5L234.1 35.5L232.4 35.5L230.64 31.68L222.96 31.68L221.2 35.5L219.46 35.5ZM223.64 30.22L229.96 30.22L226.8 23.38L223.64 30.22ZM237.44 30.1L232.16 21.5L234 21.5L238.26 28.68L242.52 21.5L244.34 21.5L239.04 30.1L239.04 35.5L237.44 35.5L237.44 30.1Z" fill="#FFFFFF" fill-opacity="1.000000" fill-rule="nonzero"/>
	</g>
</svg>
