<svg width="1520.000000" height="791.000000" viewBox="0 0 1520 791" fill="none" xmlns="http://www.w3.org/2000/svg" xmlns:xlink="http://www.w3.org/1999/xlink">
	<desc>
			Created with Pixso.
	</desc>
	<defs>
		<radialGradient gradientTransform="translate(1463 -441.5) rotate(107.314) scale(776.171 547.252)" cx="0.000000" cy="0.000000" r="1.000000" id="paint_radial_165_1468_0" gradientUnits="userSpaceOnUse">
			<stop stop-color="#194E77"/>
			<stop offset="0.428155" stop-color="#0F446D"/>
			<stop offset="1.000000" stop-color="#082237"/>
		</radialGradient>
		<radialGradient gradientTransform="translate(350.5 846) rotate(-56.1261) scale(734.704 844.117)" cx="0.000000" cy="0.000000" r="1.000000" id="paint_radial_165_1468_1" gradientUnits="userSpaceOnUse">
			<stop stop-color="#194E77"/>
			<stop offset="0.428155" stop-color="#0F3D61"/>
			<stop offset="1.000000" stop-color="#081F37" stop-opacity="0.000000"/>
		</radialGradient>
		<linearGradient x1="1519.999756" y1="0.000244" x2="-0.000122" y2="791.000244" id="paint_linear_165_1468_2" gradientUnits="userSpaceOnUse">
			<stop offset="0.132883" stop-color="#13273A"/>
			<stop offset="0.331532" stop-color="#184557"/>
			<stop offset="0.627500" stop-color="#0E192C"/>
			<stop offset="1.000000" stop-color="#1C334B"/>
		</linearGradient>
	</defs>
	<mask id="mask_165_1468" fill="white">
		<path id="Subtract" d="M1460 0L60 0C26.8628 0 0 26.8628 0 60L0 614C0 647.137 26.8628 674 60 674L488.14 674C508.918 674 528.216 684.75 539.154 702.416L576.407 762.584C587.344 780.25 606.643 791 627.421 791L1460 791C1493.14 791 1520 764.137 1520 731L1520 60C1520 26.8628 1493.14 0 1460 0Z" clip-rule="evenodd" fill="" fill-opacity="1.000000" fill-rule="evenodd"/>
	</mask>
	<path id="Subtract" d="M1460 0L60 0C26.8628 0 0 26.8628 0 60L0 614C0 647.137 26.8628 674 60 674L488.14 674C508.918 674 528.216 684.75 539.154 702.416L576.407 762.584C587.344 780.25 606.643 791 627.421 791L1460 791C1493.14 791 1520 764.137 1520 731L1520 60C1520 26.8628 1493.14 0 1460 0Z" clip-rule="evenodd" fill="#D9D9D9" fill-opacity="1.000000" fill-rule="evenodd" mask="url(#mask_165_1468)"/>
	<path id="Subtract" d="M1460 0L60 0C26.8628 0 0 26.8628 0 60L0 614C0 647.137 26.8628 674 60 674L488.14 674C508.918 674 528.216 684.75 539.154 702.416L576.407 762.584C587.344 780.25 606.643 791 627.421 791L1460 791C1493.14 791 1520 764.137 1520 731L1520 60C1520 26.8628 1493.14 0 1460 0Z" clip-rule="evenodd" fill="url(#paint_radial_165_1468_0)" fill-opacity="1.000000" fill-rule="evenodd" mask="url(#mask_165_1468)"/>
	<path id="Subtract" d="M1460 0L60 0C26.8628 0 0 26.8628 0 60L0 614C0 647.137 26.8628 674 60 674L488.14 674C508.918 674 528.216 684.75 539.154 702.416L576.407 762.584C587.344 780.25 606.643 791 627.421 791L1460 791C1493.14 791 1520 764.137 1520 731L1520 60C1520 26.8628 1493.14 0 1460 0Z" clip-rule="evenodd" fill="url(#paint_radial_165_1468_1)" fill-opacity="1.000000" fill-rule="evenodd" mask="url(#mask_165_1468)"/>
	<path id="Subtract" d="M60 0L1460 0C1493.14 0 1520 26.8628 1520 60L1520 731C1520 764.137 1493.14 791 1460 791L627.421 791C606.643 791 587.344 780.25 576.407 762.584L539.154 702.416C528.216 684.75 508.918 674 488.14 674L60 674C26.8628 674 0 647.137 0 614L0 60C0 26.8628 26.8628 0 60 0ZM60 2L1460 2Q1472.02 2 1482.27 6.24902Q1492.52 10.496 1501.01 18.9878Q1509.51 27.4829 1513.75 37.7373Q1518 47.9894 1518 60L1518 731Q1518 743.012 1513.75 753.265Q1509.51 763.518 1501.01 772.012Q1492.52 780.506 1482.27 784.753Q1472.01 789 1460 789L627.421 789Q619.891 789 612.838 787.169Q605.779 785.336 599.197 781.67Q592.619 778.006 587.347 772.973Q582.073 767.937 578.107 761.532L540.854 701.363Q536.614 694.513 530.974 689.129Q525.34 683.751 518.31 679.836Q511.274 675.917 503.729 673.958Q496.188 672 488.14 672L60 672Q47.9885 672 37.7359 667.753Q27.4823 663.507 18.9878 655.012Q10.495 646.52 6.24801 636.268Q2 626.014 2 614L2 60Q2 47.9877 6.247 37.7346Q10.494 27.4816 18.9878 18.9878Q27.4816 10.494 37.7346 6.247Q47.9877 2 60 2Z" clip-rule="evenodd" fill="url(#paint_linear_165_1468_2)" fill-opacity="1.000000" fill-rule="evenodd"/>
</svg>
